<?xml version="1.0" encoding="UTF-8"?>
<svg version="1.1" xmlns="http://www.w3.org/2000/svg" width="512" height="512">
<path d="M0 0 C0.90177475 -0.00705963 1.8035495 -0.01411926 2.73265076 -0.02139282 C40.10730417 -0.24751276 40.10730417 -0.24751276 57.3046875 3.203125 C58.33126465 3.40180176 59.3578418 3.60047852 60.41552734 3.80517578 C77.69540823 7.21114669 94.50199459 11.96441474 111.3046875 17.203125 C109.88281433 20.41148072 108.15914242 22.63740281 105.73217773 25.16137695 C105.00058945 25.92509109 104.26900116 26.68880524 103.51524353 27.47566223 C100.15620202 30.92389978 96.79363645 34.36823419 93.4128418 37.79516602 C91.63404903 39.60713126 89.86606199 41.42976876 88.10913086 43.26293945 C85.57195738 45.90956616 83.00350346 48.52182906 80.42578125 51.12890625 C79.64730331 51.95272293 78.86882538 52.77653961 78.0667572 53.62532043 C72.61509924 59.03574611 72.61509924 59.03574611 68.91665649 59.50814819 C66.61323325 59.27213109 64.53069211 58.83005234 62.3046875 58.203125 C61.37849609 58.04972656 60.45230469 57.89632812 59.49804688 57.73828125 C58.72267578 57.58230469 57.94730469 57.42632812 57.1484375 57.265625 C56.27058594 57.09289063 55.39273437 56.92015625 54.48828125 56.7421875 C52.69921875 56.3828125 50.91015625 56.0234375 49.12109375 55.6640625 C-0.52259203 45.89570142 -55.53807536 57.49087278 -97.57421875 85.359375 C-101.70199733 88.19366435 -105.71787257 91.16255286 -109.6953125 94.203125 C-110.62214844 94.89921875 -111.54898438 95.5953125 -112.50390625 96.3125 C-154.72155448 129.00584679 -181.70243367 177.99437734 -188.77734375 230.7265625 C-189.83492381 239.09858477 -190.05266201 247.39773555 -190.0078125 255.828125 C-190.00565735 256.56535797 -190.0035022 257.30259094 -190.00128174 258.06216431 C-189.73890258 314.35007738 -165.86758552 365.3682705 -126.11328125 404.76171875 C-114.82107817 415.34286856 -102.16664148 424.60095753 -88.6953125 432.203125 C-88.01162598 432.59209961 -87.32793945 432.98107422 -86.62353516 433.38183594 C-40.07801108 459.59630784 15.0923935 466.70194022 66.7487793 452.82519531 C117.74107382 438.27342763 163.15104522 404.70375586 189.3046875 358.203125 C189.7260498 357.45998047 190.14741211 356.71683594 190.58154297 355.95117188 C208.33151206 324.32005904 215.18890492 292.17142887 217.3046875 256.203125 C234.4646875 256.203125 251.6246875 256.203125 269.3046875 256.203125 C269.3046875 283.07364757 269.3046875 283.07364757 267.7421875 292.953125 C267.56510254 294.11376465 267.38801758 295.2744043 267.20556641 296.47021484 C258.44526404 350.66406529 232.80536451 397.71643082 195.3046875 437.203125 C194.12712891 438.44449219 194.12712891 438.44449219 192.92578125 439.7109375 C187.42316198 445.36121203 181.46633395 450.29153919 175.3046875 455.203125 C174.22380859 456.11964844 174.22380859 456.11964844 173.12109375 457.0546875 C133.02400971 490.64760996 78.023937 512.13074192 25.51171875 512.40625 C24.61113235 512.41326431 23.71054596 512.42027863 22.78266907 512.42750549 C19.89412369 512.44490309 17.00578334 512.45135727 14.1171875 512.453125 C13.13014832 512.45379974 12.14310913 512.45447449 11.12615967 512.45516968 C-3.34256801 512.43943992 -17.4687247 512.08323584 -31.6953125 509.203125 C-32.613125 509.02088379 -33.5309375 508.83864258 -34.4765625 508.65087891 C-40.92811507 507.33931158 -47.31821368 505.83667984 -53.6953125 504.203125 C-54.81147949 503.92130371 -54.81147949 503.92130371 -55.95019531 503.63378906 C-106.5004059 490.61925573 -154.53537708 458.14902215 -186.6953125 417.203125 C-187.48679688 416.21699219 -188.27828125 415.23085938 -189.09375 414.21484375 C-221.01148671 373.78906682 -242.48185007 321.19571583 -242.93359375 269.24609375 C-242.94334229 268.31319016 -242.95309082 267.38028656 -242.96313477 266.41911316 C-243.13522781 245.67383437 -242.95949629 225.58842779 -238.6953125 205.203125 C-238.50807617 204.2961084 -238.32083984 203.3890918 -238.12792969 202.45458984 C-233.96851779 182.99012259 -227.39368121 164.09147814 -218.6953125 146.203125 C-218.04369141 144.86096924 -218.04369141 144.86096924 -217.37890625 143.49169922 C-200.93346189 110.01101915 -177.17089238 79.27622236 -147.6953125 56.203125 C-146.71046875 55.41292969 -145.725625 54.62273438 -144.7109375 53.80859375 C-104.63000982 21.92718708 -51.64967112 0.26964019 0 0 Z " fill="#228C20" transform="translate(242.6953125,-0.203125)"/>
<path d="M0 0 C1.12590326 0.96065374 2.25118674 1.92203392 3.3762064 2.88372231 C4.00291471 3.41901326 4.62962302 3.95430421 5.2753225 4.5058161 C7.10122578 6.08769751 8.84405521 7.72321425 10.54858398 9.43505859 C11.14867783 10.03522797 11.74877167 10.63539734 12.36705017 11.25375366 C12.98713455 11.87899933 13.60721893 12.504245 14.24609375 13.1484375 C15.23005882 14.13452499 15.23005882 14.13452499 16.23390198 15.14053345 C18.30415268 17.21632862 20.37087651 19.29559427 22.4375 21.375 C23.85067862 22.7932008 25.26408794 24.21117176 26.67773438 25.62890625 C30.12116065 29.08328777 33.56143099 32.5407837 37 36 C31.93200028 42.12481854 26.41409564 47.72382168 20.7875061 53.33274841 C19.75091439 54.36977674 18.71454269 55.40702502 17.67837083 56.44447285 C14.8437732 59.28129767 12.00608192 62.11500983 9.16785884 64.94820678 C6.10272567 68.00901006 3.04049477 71.07271458 -0.02209473 74.13606262 C-5.32421667 79.43870819 -10.62816232 84.73952388 -15.93336105 90.03909111 C-23.60372813 97.70132135 -31.27132311 105.36632071 -38.9382505 113.03199256 C-51.37826433 125.46981932 -63.82050838 137.90541258 -76.26416016 150.33959961 C-88.34996902 162.41622548 -100.43472418 174.49390415 -112.51806641 186.57299805 C-113.26323896 187.31790788 -114.00841151 188.06281771 -114.77616505 188.83030056 C-118.51457627 192.56740672 -122.25296681 196.30453356 -125.99134707 200.04167068 C-156.99102621 231.0309879 -187.99432709 262.01667979 -219 293 C-223.14109107 289.51395332 -227.15160023 285.97308001 -230.97984314 282.14041138 C-232.3699913 280.75232521 -232.3699913 280.75232521 -233.78822327 279.3361969 C-234.79237489 278.32850753 -235.7964779 277.32076973 -236.80053711 276.31298828 C-237.87523258 275.2380103 -238.95014917 274.16325334 -240.02526855 273.08869934 C-242.9257646 270.18848876 -245.82317946 267.28521791 -248.72002864 264.3813653 C-251.75446857 261.34064988 -254.79176394 258.30278935 -257.82875061 255.26461792 C-263.57145584 249.5188117 -269.31160843 243.77046242 -275.05083615 238.02118289 C-281.58818824 231.47263129 -288.12839946 224.92693834 -294.66884601 218.38147759 C-308.11573576 204.92415139 -321.55905155 191.46326014 -335 178 C-333.55414497 174.98342486 -332.12529778 172.88006649 -329.74365234 170.51660156 C-328.75285172 169.52602753 -328.75285172 169.52602753 -327.74203491 168.51544189 C-327.03052277 167.81425232 -326.31901062 167.11306274 -325.5859375 166.390625 C-324.85629791 165.66381531 -324.12665833 164.93700562 -323.37490845 164.18817139 C-321.0462612 161.87070802 -318.71075174 159.5603005 -316.375 157.25 C-314.79381347 155.67884556 -313.21307875 154.10723629 -311.6328125 152.53515625 C-307.7604331 148.68481347 -303.88239829 144.84023883 -300 141 C-297.01906991 142.34027957 -294.93654685 143.81531889 -292.63372803 146.12576294 C-291.98875366 146.76798798 -291.3437793 147.41021301 -290.67926025 148.07189941 C-289.63484772 149.12709778 -289.63484772 149.12709778 -288.56933594 150.20361328 C-287.82748047 150.9451767 -287.085625 151.68674011 -286.32128906 152.45077515 C-283.87088061 154.90257671 -281.427632 157.36138605 -278.984375 159.8203125 C-277.28658943 161.52182825 -275.58836171 163.22290292 -273.88970947 164.92355347 C-269.42025084 169.40064806 -264.95683086 173.88371638 -260.49462891 178.36804199 C-255.94014532 182.94298469 -251.37999433 187.51227048 -246.8203125 192.08203125 C-237.87464288 201.04915015 -228.93527954 210.0225287 -220 219 C-214.39561676 214.33377944 -209.21759312 209.35638905 -204.07191467 204.19216919 C-203.19613705 203.31724599 -202.32035942 202.44232279 -201.41804308 201.54088676 C-199.00350777 199.12770788 -196.5912226 196.7123199 -194.17988384 194.29594946 C-191.57307544 191.68480537 -188.96335987 189.07656962 -186.35400391 186.4679718 C-181.8387525 181.95324366 -177.32532941 177.43669444 -172.81315804 172.91888809 C-166.28938658 166.38697483 -159.76284154 159.85783863 -153.23562556 153.32936762 C-142.64462738 142.73618314 -132.05586232 132.14076941 -121.46850586 121.54394531 C-111.18647737 111.25273181 -100.90339465 100.96257359 -90.61889648 90.67382812 C-89.98450549 90.03917441 -89.3501145 89.40452069 -88.69649953 88.75063504 C-85.51380402 85.56663445 -82.33108782 82.38265455 -79.14836133 79.19868493 C-52.76236534 52.80232944 -26.37999522 26.40235247 0 0 Z " fill="#228C20" transform="translate(450,66)"/>
</svg>
