<?xml version="1.0" encoding="UTF-8"?>
<svg version="1.1" xmlns="http://www.w3.org/2000/svg" width="512" height="512">
<path d="M0 0 C0.79241089 0.0012085 1.58482178 0.00241699 2.40124512 0.00366211 C15.47008457 0.05758677 27.90310202 0.88559587 40.5625 4.375 C41.51979004 4.63812988 42.47708008 4.90125977 43.46337891 5.17236328 C63.92633332 11.00901226 82.90424131 20.06222963 99.5625 33.375 C100.1404834 33.83487305 100.7184668 34.29474609 101.31396484 34.76855469 C128.94321174 57.0135248 147.17107203 86.20814539 156.5625 120.375 C156.92045654 121.6736499 156.92045654 121.6736499 157.28564453 122.99853516 C167.55402483 162.47407313 159.77431047 207.58623429 139.33056641 242.47753906 C134.10453868 250.97571008 128.11759239 258.85688903 121.5625 266.375 C121.13855957 266.86597168 120.71461914 267.35694336 120.27783203 267.86279297 C113.95792618 275.14326909 107.2667308 281.54253534 99.5625 287.375 C98.55058594 288.16390625 97.53867187 288.9528125 96.49609375 289.765625 C79.73558668 302.5259207 60.79440195 310.8138662 40.5625 316.375 C39.6967334 316.6136377 38.8309668 316.85227539 37.93896484 317.09814453 C13.83978049 323.36682642 -15.47620934 322.97962897 -39.4375 316.375 C-40.87343506 315.98030518 -40.87343506 315.98030518 -42.33837891 315.57763672 C-62.80133332 309.74098774 -81.77924131 300.68777037 -98.4375 287.375 C-99.0154834 286.91512695 -99.5934668 286.45525391 -100.18896484 285.98144531 C-127.81821174 263.7364752 -146.04607203 234.54185461 -155.4375 200.375 C-155.6761377 199.5092334 -155.91477539 198.6434668 -156.16064453 197.75146484 C-166.21312054 159.10594465 -158.98350346 114.90665296 -139.3671875 80.49755859 C-136.89610642 76.33427586 -134.21609231 72.33781318 -131.4375 68.375 C-130.73625 67.35535156 -130.035 66.33570313 -129.3125 65.28515625 C-117.4739952 48.98665919 -102.52752861 34.99364824 -85.4375 24.375 C-84.78749023 23.96604492 -84.13748047 23.55708984 -83.46777344 23.13574219 C-58.19668838 7.46030771 -29.59429357 -0.08374427 0 0 Z M-73.4375 56.375 C-74.4275 57.035 -75.4175 57.695 -76.4375 58.375 C-74.95096494 61.84129835 -72.98027649 64.06522036 -70.3046875 66.703125 C-69.09619141 67.90195313 -69.09619141 67.90195313 -67.86328125 69.125 C-67.02152344 69.95 -66.17976563 70.775 -65.3125 71.625 C-64.46300781 72.46546875 -63.61351562 73.3059375 -62.73828125 74.171875 C-60.64245077 76.24415683 -58.54209287 78.31162393 -56.4375 80.375 C-57.95126081 83.94264285 -60.04263129 86.21206287 -62.7890625 88.921875 C-63.63984375 89.76621094 -64.490625 90.61054688 -65.3671875 91.48046875 C-66.25664062 92.35316406 -67.14609375 93.22585937 -68.0625 94.125 C-68.9596875 95.01316406 -69.856875 95.90132812 -70.78125 96.81640625 C-72.99557004 99.00716969 -75.21442435 101.19312763 -77.4375 103.375 C-80.90171481 101.89312383 -83.08401976 99.93758361 -85.6953125 97.2421875 C-86.48550781 96.43652344 -87.27570313 95.63085938 -88.08984375 94.80078125 C-88.90582031 93.95902344 -89.72179687 93.11726563 -90.5625 92.25 C-92.18547481 90.57622785 -93.81285201 88.90670941 -95.4453125 87.2421875 C-96.16348145 86.50081543 -96.88165039 85.75944336 -97.62158203 84.99560547 C-99.28054516 83.15305189 -99.28054516 83.15305189 -101.4375 83.375 C-102.92119291 85.34504868 -104.25261191 87.29213125 -105.5625 89.375 C-106.15865112 90.32125244 -106.15865112 90.32125244 -106.7668457 91.28662109 C-113.16972403 101.63550369 -118.30097636 112.02789058 -121.875 123.6875 C-122.24564575 124.88656982 -122.24564575 124.88656982 -122.6237793 126.10986328 C-124.4313442 132.38768761 -124.8242318 137.62904984 -125.4375 144.375 C-115.5375 144.375 -105.6375 144.375 -95.4375 144.375 C-95.4375 155.265 -95.4375 166.155 -95.4375 177.375 C-105.3375 177.375 -115.2375 177.375 -125.4375 177.375 C-124.75038172 183.55906456 -123.97505434 188.85097803 -122.1875 194.6875 C-121.96497559 195.42387695 -121.74245117 196.16025391 -121.51318359 196.91894531 C-116.96300164 211.63729286 -110.46614891 225.57838259 -100.4375 237.375 C-95.37126232 233.13683463 -90.63711931 228.70091037 -86 224 C-85.36384766 223.35933594 -84.72769531 222.71867188 -84.07226562 222.05859375 C-82.52499668 220.49969121 -80.98013508 218.93848584 -79.4375 217.375 C-74.00016945 221.90491796 -68.97291069 226.71794216 -64 231.75 C-62.90268555 232.85408203 -62.90268555 232.85408203 -61.78320312 233.98046875 C-59.99897277 235.77636074 -58.21713876 237.57455985 -56.4375 239.375 C-60.67566537 244.44123768 -65.11158963 249.17538069 -69.8125 253.8125 C-70.45316406 254.44865234 -71.09382813 255.08480469 -71.75390625 255.74023438 C-73.31280879 257.28750332 -74.87401416 258.83236492 -76.4375 260.375 C-65.31093184 271.95531119 -49.30792499 279.01163289 -34 283.3125 C-33.29157959 283.51182129 -32.58315918 283.71114258 -31.85327148 283.91650391 C-26.28285813 285.37145778 -21.31912665 285.78683734 -15.4375 286.375 C-15.4375 276.475 -15.4375 266.575 -15.4375 256.375 C-4.8775 256.375 5.6825 256.375 16.5625 256.375 C16.5625 266.275 16.5625 276.175 16.5625 286.375 C36.72582201 284.3586678 61.80804117 277.33678144 76.5625 262.375 C76.88333813 259.30547104 76.88333813 259.30547104 74.81835938 257.2902832 C74.02236328 256.50999756 73.22636719 255.72971191 72.40625 254.92578125 C71.54902344 254.07822266 70.69179688 253.23066406 69.80859375 252.35742188 C68.90238281 251.47634766 67.99617187 250.59527344 67.0625 249.6875 C66.15628906 248.79482422 65.25007812 247.90214844 64.31640625 246.98242188 C62.07164832 244.77310749 59.82020002 242.57107467 57.5625 240.375 C62.09241796 234.93766945 66.90544216 229.91041069 71.9375 224.9375 C72.67355469 224.20595703 73.40960938 223.47441406 74.16796875 222.72070312 C75.96386074 220.93647277 77.76205985 219.15463876 79.5625 217.375 C84.62873768 221.61316537 89.36288069 226.04908963 94 230.75 C94.63615234 231.39066406 95.27230469 232.03132812 95.92773438 232.69140625 C97.47500332 234.25030879 99.01986492 235.81151416 100.5625 237.375 C115.27841463 223.26178494 122.94718161 201.09491847 126.5625 181.375 C126.5625 180.055 126.5625 178.735 126.5625 177.375 C116.6625 177.375 106.7625 177.375 96.5625 177.375 C96.5625 166.485 96.5625 155.595 96.5625 144.375 C106.4625 144.375 116.3625 144.375 126.5625 144.375 C125.88299985 136.9004983 125.16389296 130.69032356 123 123.6875 C122.73823975 122.83099854 122.47647949 121.97449707 122.20678711 121.09204102 C118.19610561 108.52352851 111.93709927 97.27744811 104.5625 86.375 C103.9025 85.385 103.2425 84.395 102.5625 83.375 C99.09620165 84.86153506 96.87227964 86.83222351 94.234375 89.5078125 C93.43515625 90.31347656 92.6359375 91.11914062 91.8125 91.94921875 C90.9875 92.79097656 90.1625 93.63273437 89.3125 94.5 C88.47203125 95.34949219 87.6315625 96.19898438 86.765625 97.07421875 C84.69334317 99.17004923 82.62587607 101.27040713 80.5625 103.375 C76.99485715 101.86123919 74.72543713 99.76986871 72.015625 97.0234375 C71.17128906 96.17265625 70.32695312 95.321875 69.45703125 94.4453125 C68.58433594 93.55585938 67.71164062 92.66640625 66.8125 91.75 C65.92433594 90.8528125 65.03617188 89.955625 64.12109375 89.03125 C61.93033031 86.81692996 59.74437237 84.59807565 57.5625 82.375 C59.04437617 78.91078519 60.99991639 76.72848024 63.6953125 74.1171875 C64.50097656 73.32699219 65.30664062 72.53679687 66.13671875 71.72265625 C66.97847656 70.90667969 67.82023438 70.09070313 68.6875 69.25 C70.36127215 67.62702519 72.03079059 65.99964799 73.6953125 64.3671875 C74.43668457 63.64901855 75.17805664 62.93084961 75.94189453 62.19091797 C77.78444811 60.53195484 77.78444811 60.53195484 77.5625 58.375 C75.55043772 56.87359791 73.55929727 55.51877464 71.4375 54.1875 C70.80295898 53.78748779 70.16841797 53.38747559 69.51464844 52.9753418 C54.03632308 43.375031 35.15443653 34.375 16.5625 34.375 C16.5625 44.275 16.5625 54.175 16.5625 64.375 C6.0025 64.375 -4.5575 64.375 -15.4375 64.375 C-15.4375 54.475 -15.4375 44.575 -15.4375 34.375 C-36.20270454 34.375 -56.68965214 44.9839227 -73.4375 56.375 Z " fill="#DA0F82" transform="translate(255.4375,95.625)"/>
<path d="M0 0 C28.05 0 56.1 0 85 0 C85 28.05 85 56.1 85 85 C74.11 85 63.22 85 52 85 C51.67 78.4 51.34 71.8 51 65 C27.38015818 100.88399046 15.52549918 142.51320917 15.625 185.3125 C15.62631424 186.69754227 15.62631424 186.69754227 15.62765503 188.11056519 C15.72568896 219.53060994 22.09810468 249.26844924 35 278 C35.36432129 278.81243164 35.72864258 279.62486328 36.10400391 280.46191406 C44.28308753 298.36928355 54.93243481 315.24309178 68 330 C69.01707031 331.17949219 69.01707031 331.17949219 70.0546875 332.3828125 C72.32420435 334.96823279 74.64609813 337.49109387 77 340 C77.49064941 340.52464844 77.98129883 341.04929687 78.48681641 341.58984375 C87.54250358 351.19158858 97.29238208 359.30397992 108 367 C108.88147705 367.648479 108.88147705 367.648479 109.78076172 368.31005859 C144.65871977 393.84408123 187.90079089 407.31286116 230.87011719 408.71020508 C236.90899825 408.90899825 236.90899825 408.90899825 238 410 C238.0883967 412.3756852 238.11530305 414.72208674 238.09765625 417.09765625 C238.09553383 418.16094398 238.09553383 418.16094398 238.09336853 419.24571228 C238.08775443 421.51801712 238.07519963 423.79022475 238.0625 426.0625 C238.05748681 427.59960796 238.05292359 429.13671745 238.04882812 430.67382812 C238.03778042 434.44925642 238.02050641 438.22461171 238 442 C186.35809322 443.96644636 133.00054479 427.15578683 91 397 C90.03191406 396.30519531 89.06382813 395.61039062 88.06640625 394.89453125 C72.18000876 383.22247068 56.73685367 370.08698153 44 355 C43.51031738 354.42266113 43.02063477 353.84532227 42.51611328 353.25048828 C34.64498566 343.92431487 27.45722136 334.35621809 21 324 C20.59185059 323.3498291 20.18370117 322.6996582 19.76318359 322.02978516 C-2.9198348 285.59358276 -17.85988399 242.14315374 -18.23828125 198.9453125 C-18.24812042 198.01414108 -18.25795959 197.08296967 -18.26809692 196.12358093 C-18.4414874 175.44703554 -18.35584601 155.30956197 -14 135 C-13.76394043 133.89285645 -13.52788086 132.78571289 -13.28466797 131.64501953 C-8.2185034 108.75092058 -0.22586061 86.60262722 11 66 C11.34353516 65.35450195 11.68707031 64.70900391 12.04101562 64.04394531 C17.66290982 53.49390072 24.10903663 43.76946705 31 34 C20.77 33.67 10.54 33.34 0 33 C0 22.11 0 11.22 0 0 Z " fill="#DA0F82" transform="translate(18,70)"/>
<path d="M0 0 C56.19270411 -1.49331005 111.6899687 17.44889348 156 52 C156.88429688 52.67289063 157.76859375 53.34578125 158.6796875 54.0390625 C174.26987101 66.1426235 188.88204477 80.44168497 201 96 C201.76441406 96.93585938 202.52882813 97.87171875 203.31640625 98.8359375 C230.35251226 132.59852253 247.55374184 174.37485718 254 217 C254.17660156 218.12245117 254.35320312 219.24490234 254.53515625 220.40136719 C256.19203102 232.01428412 256.39980686 243.53193562 256.375 255.25 C256.37412384 256.26301178 256.37324768 257.27602356 256.37234497 258.31973267 C256.32531026 274.84909745 255.47756534 290.78550834 252 307 C251.64591064 308.66071533 251.64591064 308.66071533 251.28466797 310.35498047 C243.40368946 345.96927985 228.13856067 378.40601507 207 408 C217.23 408.33 227.46 408.66 238 409 C238 419.89 238 430.78 238 442 C209.95 442 181.9 442 153 442 C153 413.95 153 385.9 153 357 C163.89 357 174.78 357 186 357 C186.33 363.6 186.66 370.2 187 377 C210.0039277 340.41998382 222.49736491 300.14722917 222.3125 256.875 C222.31034485 255.9672583 222.3081897 255.0595166 222.30596924 254.12426758 C222.25541751 240.85926051 221.84776624 228.00023057 219 215 C218.79600586 214.02256836 218.59201172 213.04513672 218.38183594 212.03808594 C209.16569521 168.47941208 188.60826081 131.12488635 158 99 C157.20335937 98.15050781 156.40671875 97.30101563 155.5859375 96.42578125 C148.93971557 89.5305966 141.64057637 83.73250852 134 78 C133.43796875 77.57187012 132.8759375 77.14374023 132.296875 76.70263672 C122.74232998 69.45022361 112.64011609 63.51915702 102 58 C101.25121582 57.60925293 100.50243164 57.21850586 99.73095703 56.81591797 C71.12166484 42.07517347 39.51423516 34.49368814 7.43481445 33.34082031 C1.09976926 33.09976926 1.09976926 33.09976926 0 32 C-0.0883967 29.6243148 -0.11530305 27.27791326 -0.09765625 24.90234375 C-0.0962413 24.19348526 -0.09482635 23.48462677 -0.09336853 22.75428772 C-0.08775443 20.48198288 -0.07519963 18.20977525 -0.0625 15.9375 C-0.05748681 14.40039204 -0.05292359 12.86328255 -0.04882812 11.32617188 C-0.03778042 7.55074358 -0.02050641 3.77538829 0 0 Z " fill="#DA0F82" transform="translate(256,0)"/>
<path d="M0 0 C10.56 0 21.12 0 32 0 C32 15.84 32 31.68 32 48 C47.84 48 63.68 48 80 48 C80 58.56 80 69.12 80 80 C53.6 80 27.2 80 0 80 C0 53.6 0 27.2 0 0 Z " fill="#DA0F82" transform="translate(240,192)"/>
</svg>
