<?xml version="1.0" encoding="UTF-8"?>
<svg version="1.1" xmlns="http://www.w3.org/2000/svg" width="512" height="512">
<path d="M0 0 C2.90401549 0.88080228 5.32189376 2.04564569 7.9831543 3.50415039 C8.98950928 4.05256592 9.99586426 4.60098145 11.03271484 5.16601562 C12.0875708 5.74939697 13.14242676 6.33277832 14.22924805 6.93383789 C15.3066626 7.52044189 16.38407715 8.1070459 17.49414062 8.71142578 C23.94212178 12.23857244 30.26684123 15.87126518 36.3972168 19.92993164 C38.65957524 21.0833446 38.65957524 21.0833446 40.97192383 20.04052734 C43.7280532 18.78081791 46.38886588 17.42402862 49.0534668 15.98071289 C50.07504883 15.42770508 51.09663086 14.87469727 52.14916992 14.30493164 C53.2068457 13.7287207 54.26452148 13.15250977 55.35424805 12.55883789 C56.91175781 11.71772461 56.91175781 11.71772461 58.50073242 10.85961914 C64.30093511 7.71041818 69.93527415 4.45667629 75.42382812 0.78637695 C78.31847431 -0.47520608 79.71113468 -0.22220393 82.66674805 0.80883789 C84.3449707 2.10888672 84.3449707 2.10888672 85.83081055 3.76586914 C86.39034424 4.37833496 86.94987793 4.99080078 87.52636719 5.62182617 C88.40023071 6.61158447 88.40023071 6.61158447 89.29174805 7.62133789 C89.90203857 8.29406738 90.5123291 8.96679688 91.14111328 9.65991211 C92.39006794 11.03794549 93.63446561 12.42012277 94.87426758 13.80639648 C97.00846036 16.19057644 99.16633142 18.55206461 101.33032227 20.90917969 C102.64601488 22.34312391 103.9554269 23.78282357 105.2644043 25.22290039 C106.45356445 26.50293945 106.45356445 26.50293945 107.66674805 27.80883789 C108.35510742 28.7131958 109.0434668 29.61755371 109.75268555 30.54931641 C112.31071518 32.96857395 112.31071518 32.96857395 114.61582947 32.93511963 C117.02487216 32.61354554 119.33169336 32.11841736 121.6940918 31.54711914 C122.56062881 31.36247604 123.42716583 31.17783295 124.31996155 30.9875946 C127.0881044 30.39247543 129.84551467 29.75852376 132.60424805 29.12133789 C135.3606047 28.50996464 138.11855955 27.90675072 140.87782288 27.30863953 C142.59283485 26.93414794 144.30590502 26.55061602 146.0165863 26.15681458 C150.32359304 25.18855732 154.21807622 24.58826108 158.66674805 24.80883789 C159.10543213 25.77708496 159.54411621 26.74533203 159.99609375 27.74291992 C161.63311088 31.35526595 163.27165377 34.96691821 164.91064453 38.57836914 C165.61808855 40.13775226 166.32512568 41.69732004 167.03173828 43.25708008 C168.05091629 45.50659772 169.07158422 47.75543428 170.0925293 50.00415039 C170.56146355 51.0404509 170.56146355 51.0404509 171.03987122 52.09768677 C172.42577279 55.14687954 173.8386684 58.13806574 175.39013672 61.10913086 C176.66674805 63.80883789 176.66674805 63.80883789 176.66674805 66.80883789 C177.55305908 66.85709717 178.43937012 66.90535645 179.35253906 66.95507812 C189.16489125 67.54255627 198.85912763 68.60149552 208.60424805 69.87133789 C210.07750276 70.0599002 211.55080994 70.24805302 213.02416992 70.43579102 C216.57230993 70.88878137 220.11971964 71.34721413 223.66674805 71.80883789 C224.384427 77.37657592 225.09631933 82.94501274 225.80297852 88.51416016 C226.04392145 90.40661332 226.28641405 92.29886989 226.53051758 94.19091797 C226.88214185 96.91851764 227.22809328 99.64678765 227.57299805 102.37524414 C227.68236694 103.21406631 227.79173584 104.05288849 227.90441895 104.91712952 C228.48906551 109.59121409 228.77738779 114.09835103 228.66674805 118.80883789 C229.3304541 118.90036133 229.99416016 118.99188477 230.67797852 119.08618164 C234.52982057 120.01752068 237.93597952 121.65876696 241.48706055 123.37133789 C242.22753632 123.72268799 242.96801208 124.07403809 243.73092651 124.43603516 C246.08706726 125.55506922 248.4395307 126.68158333 250.79174805 127.80883789 C253.15172257 128.9347414 255.51243702 130.05905786 257.87399292 131.18164062 C259.34081648 131.87944037 260.80661657 132.57939651 262.27127075 133.28173828 C265.04640588 134.6060558 267.74616117 135.83530893 270.66674805 136.80883789 C270.11455402 147.03524058 268.05644622 156.96839619 266.10424805 166.99633789 C265.77107688 168.72866581 265.43839073 170.46108709 265.10620117 172.19360352 C264.29863633 176.39977851 263.48452364 180.6046367 262.66674805 184.80883789 C263.59245605 185.24450073 263.59245605 185.24450073 264.53686523 185.68896484 C267.18430668 187.08096552 268.85066636 188.83735685 270.91674805 190.99633789 C273.69279306 193.83557743 276.4717759 196.59075648 279.47924805 199.18383789 C280.1134668 199.73555664 280.74768555 200.28727539 281.40112305 200.85571289 C282.66235009 201.94297758 283.92619111 203.02729887 285.19995117 204.09985352 C286.89021417 205.52916363 288.56009128 206.97997007 290.22924805 208.43383789 C290.7787915 208.88936035 291.32833496 209.34488281 291.89453125 209.81420898 C293.4206543 211.16040039 293.4206543 211.16040039 295.66674805 213.80883789 C295.34528437 217.73250115 293.84481646 220.70697976 291.97143555 224.12524414 C291.14881226 225.63477661 291.14881226 225.63477661 290.30957031 227.17480469 C289.72618896 228.22966064 289.14280762 229.2845166 288.54174805 230.37133789 C287.66184204 231.98745972 287.66184204 231.98745972 286.76416016 233.63623047 C283.23701349 240.08421162 279.60432076 246.40893108 275.5456543 252.53930664 C274.39224134 254.80166509 274.39224134 254.80166509 275.43505859 257.11401367 C276.69476802 259.87014304 278.05155732 262.53095573 279.49487305 265.19555664 C280.04788086 266.21713867 280.60088867 267.2387207 281.1706543 268.29125977 C281.74686523 269.34893555 282.32307617 270.40661133 282.91674805 271.49633789 C283.47749023 272.53467773 284.03823242 273.57301758 284.6159668 274.64282227 C287.76516776 280.44302496 291.01890965 286.07736399 294.68920898 291.56591797 C295.95079202 294.46056416 295.69778987 295.85322452 294.66674805 298.80883789 C293.36669922 300.48706055 293.36669922 300.48706055 291.7097168 301.97290039 C291.09708984 302.53259521 290.48446289 303.09229004 289.85327148 303.66894531 C289.19359375 304.25135986 288.53391602 304.83377441 287.85424805 305.43383789 C287.18296875 306.04267822 286.51168945 306.65151855 285.82006836 307.27880859 C284.44346156 308.52625671 283.06274436 309.76918368 281.67797852 311.00756836 C279.25697612 313.17583197 276.86118053 315.37038615 274.46875 317.57006836 C273.00198222 318.9180088 271.52983866 320.26009276 270.05737305 321.60180664 C268.65423325 322.89718897 267.27581509 324.22218672 265.96362305 325.60961914 C264.66674805 326.80883789 264.66674805 326.80883789 262.66674805 326.80883789 C262.9090918 328.04972168 263.15143555 329.29060547 263.40112305 330.5690918 C264.30129877 335.18617143 265.1941012 339.80465156 266.0847168 344.42358398 C266.47073568 346.42006585 266.85873603 348.41616569 267.2487793 350.41186523 C267.81002527 353.28538733 268.36406167 356.16022129 268.91674805 359.03540039 C269.09173828 359.92313141 269.26672852 360.81086243 269.44702148 361.72549438 C270.29126217 366.15536922 270.87435944 370.27382642 270.66674805 374.80883789 C269.69850098 375.24752197 268.73025391 375.68620605 267.73266602 376.13818359 C264.12031999 377.77520072 260.50866773 379.41374361 256.8972168 381.05273438 C255.33783368 381.76017839 253.7782659 382.46721552 252.21850586 383.17382812 C249.96898822 384.19300614 247.72015166 385.21367406 245.47143555 386.23461914 C244.78056854 386.54724197 244.08970154 386.85986481 243.37789917 387.18196106 C240.3287064 388.56786264 237.3375202 389.98075825 234.36645508 391.53222656 C231.66674805 392.80883789 231.66674805 392.80883789 228.66674805 392.80883789 C228.61848877 393.69514893 228.57022949 394.58145996 228.52050781 395.49462891 C227.93302966 405.3069811 226.87409042 415.00121747 225.60424805 424.74633789 C225.41568574 426.2195926 225.22753292 427.69289978 225.03979492 429.16625977 C224.58680457 432.71439977 224.1283718 436.26180948 223.66674805 439.80883789 C217.93815194 440.52557958 212.20898629 441.237515 206.47924805 441.94506836 C204.53149421 442.18627125 202.58390039 442.42877008 200.63647461 442.67260742 C197.83187606 443.02354034 195.02672875 443.3697574 192.22143555 443.71508789 C191.35557831 443.82445679 190.48972107 443.93382568 189.59762573 444.04650879 C185.2560363 444.57626339 181.05126936 444.93357534 176.66674805 444.80883789 C176.57522461 445.47254395 176.48370117 446.13625 176.3894043 446.82006836 C175.45806526 450.67191041 173.81681897 454.07806936 172.10424805 457.62915039 C171.75289795 458.36962616 171.40154785 459.11010193 171.03955078 459.87301636 C169.92051672 462.22915711 168.7940026 464.58162055 167.66674805 466.93383789 C166.54084454 469.29381242 165.41652808 471.65452686 164.29394531 474.01608276 C163.59614556 475.48290632 162.89618942 476.94870641 162.19384766 478.4133606 C160.86953013 481.18849573 159.64027701 483.88825102 158.66674805 486.80883789 C151.92104328 486.51858966 145.52075195 485.41777245 138.96362305 483.89868164 C137.39082123 483.54595559 135.81790264 483.19374989 134.24487305 482.84204102 C131.81392847 482.29725074 129.38975452 481.73965689 126.97143555 481.14111328 C117.97220556 478.50466071 117.97220556 478.50466071 109.26220703 480.13183594 C107.42363447 482.24231189 106.08345263 484.39846216 104.66674805 486.80883789 C103.47415569 488.16236662 102.24529095 489.48475665 100.9831543 490.77368164 C100.36939941 491.42473877 99.75564453 492.0757959 99.12329102 492.74658203 C97.82989136 494.11217066 96.53592055 495.4772185 95.24145508 496.84179688 C92.44967625 499.79659676 89.67399891 502.73732074 87.0925293 505.87915039 C86.41577148 506.70157227 85.73901367 507.52399414 85.04174805 508.37133789 C84.49260742 509.07387695 83.9434668 509.77641602 83.37768555 510.50024414 C81.66674805 511.80883789 81.66674805 511.80883789 79.39208984 511.55908203 C76.42264523 510.74164019 74.05041166 509.59329956 71.3503418 508.11352539 C69.84080933 507.2909021 69.84080933 507.2909021 68.30078125 506.45166016 C66.71849731 505.57658813 66.71849731 505.57658813 65.10424805 504.68383789 C64.0268335 504.09723389 62.94941895 503.51062988 61.83935547 502.90625 C55.39137431 499.37910334 49.06665486 495.7464106 42.9362793 491.68774414 C40.67392085 490.53433118 40.67392085 490.53433118 38.36157227 491.57714844 C35.60544289 492.83685787 32.94463021 494.19364717 30.2800293 495.63696289 C29.25844727 496.1899707 28.23686523 496.74297852 27.18432617 497.31274414 C26.12665039 497.88895508 25.06897461 498.46516602 23.97924805 499.05883789 C22.42173828 499.89995117 22.42173828 499.89995117 20.83276367 500.75805664 C15.03256098 503.9072576 9.39822195 507.16099949 3.90966797 510.83129883 C1.01502178 512.09288186 -0.37763859 511.83987971 -3.33325195 510.80883789 C-5.01147461 509.50878906 -5.01147461 509.50878906 -6.49731445 507.85180664 C-7.05700928 507.23917969 -7.6167041 506.62655273 -8.19335938 505.99536133 C-8.77577393 505.33568359 -9.35818848 504.67600586 -9.95825195 503.99633789 C-10.56709229 503.32505859 -11.17593262 502.6537793 -11.80322266 501.9621582 C-13.05067077 500.58555141 -14.29359774 499.20483421 -15.53198242 497.82006836 C-17.70024603 495.39906597 -19.89480021 493.00327037 -22.09448242 490.61083984 C-23.44242286 489.14407207 -24.78450682 487.6719285 -26.1262207 486.19946289 C-27.42160303 484.79632309 -28.74660079 483.41790494 -30.1340332 482.10571289 C-31.33325195 480.80883789 -31.33325195 480.80883789 -31.33325195 478.80883789 C-32.57413574 479.05118164 -33.81501953 479.29352539 -35.09350586 479.54321289 C-39.7105855 480.44338862 -44.32906562 481.33619104 -48.94799805 482.22680664 C-50.94447992 482.61282552 -52.94057975 483.00082588 -54.9362793 483.39086914 C-57.80980139 483.95211511 -60.68463535 484.50615151 -63.55981445 485.05883789 C-64.44754547 485.23382813 -65.33527649 485.40881836 -66.24990845 485.58911133 C-70.67978328 486.43335201 -74.79824048 487.01644929 -79.33325195 486.80883789 C-79.77193604 485.84059082 -80.21062012 484.87234375 -80.66259766 483.87475586 C-82.29961479 480.26240983 -83.93815767 476.65075757 -85.57714844 473.03930664 C-86.28459246 471.47992352 -86.99162958 469.92035574 -87.69824219 468.3605957 C-88.7174202 466.11107806 -89.73808812 463.8622415 -90.7590332 461.61352539 C-91.22796745 460.57722488 -91.22796745 460.57722488 -91.70637512 459.51998901 C-93.0922767 456.47079625 -94.50517231 453.47961004 -96.05664062 450.50854492 C-97.33325195 447.80883789 -97.33325195 447.80883789 -97.33325195 444.80883789 C-98.21956299 444.76057861 -99.10587402 444.71231934 -100.01904297 444.66259766 C-109.83139516 444.07511951 -119.52563153 443.01618026 -129.27075195 441.74633789 C-130.74400666 441.55777558 -132.21731385 441.36962276 -133.69067383 441.18188477 C-137.23881384 440.72889441 -140.78622354 440.27046165 -144.33325195 439.80883789 C-145.0509309 434.24109986 -145.76282323 428.67266304 -146.46948242 423.10351562 C-146.71042536 421.21106246 -146.95291796 419.3188059 -147.19702148 417.42675781 C-147.54864575 414.69915814 -147.89459718 411.97088813 -148.23950195 409.24243164 C-148.34887085 408.40360947 -148.45823975 407.56478729 -148.57092285 406.70054626 C-149.15556941 402.02646169 -149.44389169 397.51932475 -149.33325195 392.80883789 C-150.46633789 392.47239258 -151.59942383 392.13594727 -152.7668457 391.78930664 C-160.55922136 389.19184809 -167.94568821 385.55376547 -175.39575195 382.12133789 C-176.94438696 381.41193178 -178.49321356 380.70294377 -180.04223633 379.99438477 C-183.8081361 378.27068513 -187.57139233 376.54133604 -191.33325195 374.80883789 C-190.78105793 364.5824352 -188.72295012 354.64927959 -186.77075195 344.62133789 C-186.43758079 342.88900997 -186.10489464 341.15658869 -185.77270508 339.42407227 C-184.96514023 335.21789727 -184.15102754 331.01303909 -183.33325195 326.80883789 C-183.95039063 326.518396 -184.5675293 326.2279541 -185.20336914 325.92871094 C-187.85081059 324.53671026 -189.51717027 322.78031893 -191.58325195 320.62133789 C-194.35929697 317.78209835 -197.1382798 315.02691931 -200.14575195 312.43383789 C-200.7799707 311.88211914 -201.41418945 311.33040039 -202.06762695 310.76196289 C-203.328854 309.6746982 -204.59269502 308.59037692 -205.86645508 307.51782227 C-207.55671808 306.08851215 -209.22659519 304.63770571 -210.89575195 303.18383789 C-211.44529541 302.72831543 -211.99483887 302.27279297 -212.56103516 301.8034668 C-214.0871582 300.45727539 -214.0871582 300.45727539 -216.33325195 297.80883789 C-216.01178828 293.88517463 -214.51132036 290.91069603 -212.63793945 287.49243164 C-211.81531616 285.98289917 -211.81531616 285.98289917 -210.97607422 284.44287109 C-210.1010022 282.86058716 -210.1010022 282.86058716 -209.20825195 281.24633789 C-208.62164795 280.16892334 -208.03504395 279.09150879 -207.43066406 277.98144531 C-203.9035174 271.53346416 -200.27082467 265.2087447 -196.2121582 259.07836914 C-195.05874525 256.8160107 -195.05874525 256.8160107 -196.1015625 254.50366211 C-197.36127193 251.74753274 -198.71806123 249.08672005 -200.16137695 246.42211914 C-200.99088867 244.88974609 -200.99088867 244.88974609 -201.8371582 243.32641602 C-202.41336914 242.26874023 -202.98958008 241.21106445 -203.58325195 240.12133789 C-204.14399414 239.08299805 -204.70473633 238.0446582 -205.2824707 236.97485352 C-208.43167166 231.17465082 -211.68541355 225.54031179 -215.35571289 220.05175781 C-216.61729592 217.15711162 -216.36429378 215.76445126 -215.33325195 212.80883789 C-214.03320313 211.13061523 -214.03320313 211.13061523 -212.3762207 209.64477539 C-211.76359375 209.08508057 -211.1509668 208.52538574 -210.51977539 207.94873047 C-209.86009766 207.36631592 -209.20041992 206.78390137 -208.52075195 206.18383789 C-207.84947266 205.57499756 -207.17819336 204.96615723 -206.48657227 204.33886719 C-205.10996547 203.09141907 -203.72924827 201.8484921 -202.34448242 200.61010742 C-199.92348003 198.44184381 -197.52768443 196.24728964 -195.13525391 194.04760742 C-193.66848613 192.69966699 -192.19634257 191.35758303 -190.72387695 190.01586914 C-189.32073715 188.72048681 -187.942319 187.39548906 -186.63012695 186.00805664 C-185.33325195 184.80883789 -185.33325195 184.80883789 -183.33325195 184.80883789 C-183.5755957 183.5679541 -183.81793945 182.32707031 -184.06762695 181.04858398 C-184.96780268 176.43150435 -185.8606051 171.81302422 -186.7512207 167.1940918 C-187.13723958 165.19760993 -187.52523994 163.20151009 -187.9152832 161.20581055 C-188.47652917 158.33228845 -189.03056558 155.45745449 -189.58325195 152.58227539 C-189.75824219 151.69454437 -189.93323242 150.80681335 -190.11352539 149.8921814 C-190.95776607 145.46230656 -191.54086335 141.34384936 -191.33325195 136.80883789 C-186.80105802 134.72156766 -182.26607324 132.64052569 -177.72851562 130.56494141 C-176.18869112 129.85957125 -174.64961143 129.1525726 -173.11132812 128.44384766 C-157.37751221 121.19740664 -157.37751221 121.19740664 -149.33325195 118.80883789 C-149.28499268 117.92252686 -149.2367334 117.03621582 -149.18701172 116.12304688 C-148.59953357 106.31069468 -147.54059432 96.61645831 -146.27075195 86.87133789 C-146.08218964 85.39808318 -145.89403683 83.924776 -145.70629883 82.45141602 C-145.25330847 78.90327601 -144.79487571 75.3558663 -144.33325195 71.80883789 C-138.60465585 71.0920962 -132.8754902 70.38016078 -127.14575195 69.67260742 C-125.19799812 69.43140453 -123.2504043 69.18890571 -121.30297852 68.94506836 C-118.49837996 68.59413545 -115.69323266 68.24791838 -112.88793945 67.90258789 C-112.02208221 67.79321899 -111.15622498 67.6838501 -110.26412964 67.57116699 C-105.92254021 67.04141239 -101.71777327 66.68410044 -97.33325195 66.80883789 C-97.24172852 66.14513184 -97.15020508 65.48142578 -97.0559082 64.79760742 C-96.12456917 60.94576537 -94.48332288 57.53960642 -92.77075195 53.98852539 C-92.41940186 53.24804962 -92.06805176 52.50757385 -91.70605469 51.74465942 C-90.58702063 49.38851867 -89.46050651 47.03605523 -88.33325195 44.68383789 C-87.20734844 42.32386337 -86.08303198 39.96314892 -84.96044922 37.60159302 C-84.26264947 36.13476946 -83.56269333 34.66896937 -82.86035156 33.20431519 C-81.53603404 30.42918005 -80.30678091 27.72942477 -79.33325195 24.80883789 C-68.87478496 25.30630347 -58.81698791 27.30978565 -48.58325195 29.37133789 C-46.90368418 29.70462408 -45.22399731 30.03731073 -43.54418945 30.36938477 C-39.47247287 31.17563963 -35.40244753 31.98995854 -31.33325195 32.80883789 C-31.04281006 32.19169922 -30.75236816 31.57456055 -30.453125 30.9387207 C-29.06112432 28.29127925 -27.30473299 26.62491957 -25.14575195 24.55883789 C-22.30651242 21.78279287 -19.55133337 19.00381004 -16.95825195 15.99633789 C-16.4065332 15.36211914 -15.85481445 14.72790039 -15.28637695 14.07446289 C-14.19911226 12.81323585 -13.11479098 11.54939483 -12.04223633 10.27563477 C-10.61292621 8.58537177 -9.16211977 6.91549465 -7.70825195 5.24633789 C-7.25272949 4.69679443 -6.79720703 4.14725098 -6.32788086 3.58105469 C-2.95544675 -0.2421382 -2.95544675 -0.2421382 0 0 Z M2.5300293 40.71508789 C-1.38433326 44.69538917 -5.2817571 48.66841652 -8.95825195 52.87133789 C-9.78969727 53.81493164 -9.78969727 53.81493164 -10.63793945 54.77758789 C-11.86817925 56.25160793 -13.03261334 57.78134043 -14.15356445 59.34008789 C-14.79036133 60.17540039 -15.4271582 61.01071289 -16.08325195 61.87133789 C-16.6349707 62.64606445 -17.18668945 63.42079102 -17.75512695 64.21899414 C-25.3559645 68.9061773 -39.37356913 63.24814746 -47.54418945 61.44946289 C-48.60637695 61.22516602 -49.66856445 61.00086914 -50.76293945 60.76977539 C-51.71410645 60.56143066 -52.66527344 60.35308594 -53.64526367 60.13842773 C-56.71880744 59.76156269 -58.46134015 59.59035317 -61.33325195 60.80883789 C-62.86217175 63.25491761 -63.98479417 65.42768068 -65.1027832 68.05493164 C-65.59158211 69.14439842 -65.59158211 69.14439842 -66.09025574 70.25587463 C-67.12661352 72.57857245 -68.13580584 74.91205341 -69.14575195 77.24633789 C-69.84397226 78.8154323 -70.5438234 80.3838021 -71.24536133 81.95141602 C-74.72378846 88.67334957 -74.72378846 88.67334957 -76.33325195 95.80883789 C-77.20981445 95.8462207 -78.08637695 95.88360352 -78.98950195 95.92211914 C-91.5203262 96.57158259 -103.90002218 98.15346173 -116.33325195 99.80883789 C-116.90940109 104.21883052 -117.47880472 108.62962863 -118.04223633 113.04125977 C-118.2344385 114.53888877 -118.42841486 116.03629128 -118.62426758 117.53344727 C-118.90704689 119.69757468 -119.18322828 121.86246281 -119.45825195 124.02758789 C-119.70961914 125.97568359 -119.70961914 125.97568359 -119.96606445 127.96313477 C-120.34759821 131.95909207 -120.3956656 135.79876117 -120.33325195 139.80883789 C-121.53981445 140.18266602 -122.74637695 140.55649414 -123.98950195 140.94165039 C-130.45448726 143.10255653 -136.62735167 145.87739187 -142.83325195 148.68383789 C-144.0243457 149.20075195 -145.21543945 149.71766602 -146.44262695 150.25024414 C-147.5718457 150.76200195 -148.70106445 151.27375977 -149.86450195 151.80102539 C-151.40460938 152.48720947 -151.40460938 152.48720947 -152.97583008 153.18725586 C-155.48887654 154.59742351 -155.48887654 154.59742351 -156.25097656 157.06933594 C-156.3522693 160.44205355 -155.82870801 163.3478504 -155.1184082 166.64868164 C-154.98381699 167.29325821 -154.84922577 167.93783478 -154.71055603 168.60194397 C-154.28147339 170.65214675 -153.83968977 172.69930467 -153.39575195 174.74633789 C-152.9566988 176.79002292 -152.52063319 178.83419461 -152.09165955 180.88002014 C-151.70127695 182.73917753 -151.3008634 184.59622032 -150.89990234 186.453125 C-150.35366069 189.68797703 -150.06960186 192.53928382 -150.33325195 195.80883789 C-152.5012207 198.37915039 -152.5012207 198.37915039 -155.52075195 200.93383789 C-156.61629745 201.88509284 -157.71133069 202.83693802 -158.8059082 203.78930664 C-159.38099121 204.27963379 -159.95607422 204.76996094 -160.54858398 205.27514648 C-163.57212907 207.87349262 -166.51584586 210.55692139 -169.45825195 213.24633789 C-170.01407959 213.74214355 -170.56990723 214.23794922 -171.14257812 214.7487793 C-175.09314453 218.22514167 -175.09314453 218.22514167 -177.33325195 222.80883789 C-176.37823163 225.20583098 -175.40040847 227.1689452 -174.09887695 229.36743164 C-173.56904205 230.30668236 -173.56904205 230.30668236 -173.02850342 231.26490784 C-171.89497469 233.26763638 -170.74007782 235.25699166 -169.58325195 237.24633789 C-168.44527779 239.23442019 -167.31184871 241.22499991 -166.18084717 243.21705627 C-165.47580109 244.45540108 -164.76594329 245.69102255 -164.05059814 246.92344666 C-160.09950067 253.78585026 -160.09950067 253.78585026 -159.33325195 256.80883789 C-160.22021484 259.3449707 -160.22021484 259.3449707 -161.8059082 262.01196289 C-162.37631836 262.99293945 -162.94672852 263.97391602 -163.53442383 264.98461914 C-164.45578125 266.50635742 -164.45578125 266.50635742 -165.39575195 268.05883789 C-166.574256 270.0639765 -167.75264298 272.06918393 -168.9309082 274.07446289 C-170.58101163 276.86916556 -172.23689462 279.65427132 -173.95385742 282.40844727 C-174.42839355 283.19541992 -174.90292969 283.98239258 -175.3918457 284.79321289 C-175.81651123 285.47609375 -176.24117676 286.15897461 -176.67871094 286.86254883 C-177.57063778 288.84559432 -177.57063778 288.84559432 -176.55859375 290.94140625 C-173.15358959 296.13066243 -168.03637767 300.24480295 -163.39575195 304.30883789 C-162.74864258 304.88118164 -162.1015332 305.45352539 -161.43481445 306.04321289 C-159.30525366 307.87696602 -159.30525366 307.87696602 -156.79418945 309.63696289 C-155.54508789 310.58829102 -155.54508789 310.58829102 -154.27075195 311.55883789 C-153.49602539 312.11055664 -152.72129883 312.66227539 -151.9230957 313.23071289 C-147.23591255 320.83155044 -152.89394239 334.84915507 -154.69262695 343.01977539 C-155.02907227 344.61305664 -155.02907227 344.61305664 -155.37231445 346.23852539 C-155.58065918 347.18969238 -155.78900391 348.14085937 -156.00366211 349.12084961 C-156.38052715 352.19439338 -156.55173667 353.93692609 -155.33325195 356.80883789 C-152.88717223 358.33775769 -150.71440916 359.4603801 -148.0871582 360.57836914 C-147.36084702 360.90423508 -146.63453583 361.23010101 -145.88621521 361.56584167 C-143.56351739 362.60219946 -141.23003643 363.61139178 -138.89575195 364.62133789 C-137.32665755 365.3195582 -135.75828775 366.01940934 -134.19067383 366.72094727 C-127.46874027 370.1993744 -127.46874027 370.1993744 -120.33325195 371.80883789 C-120.29586914 372.76918945 -120.25848633 373.72954102 -120.2199707 374.71899414 C-119.6497026 387.18298401 -118.07355594 399.4597194 -116.33325195 411.80883789 C-111.92325932 412.38498703 -107.51246121 412.95439066 -103.10083008 413.51782227 C-101.60320107 413.71002444 -100.10579856 413.9040008 -98.60864258 414.09985352 C-96.44451516 414.38263283 -94.27962703 414.65881422 -92.11450195 414.93383789 C-90.81577148 415.10141602 -89.51704102 415.26899414 -88.17895508 415.44165039 C-84.18299778 415.82318415 -80.34332867 415.87125154 -76.33325195 415.80883789 C-75.95942383 417.01540039 -75.5855957 418.22196289 -75.20043945 419.46508789 C-73.03953332 425.93007319 -70.26469797 432.10293761 -67.45825195 438.30883789 C-66.94133789 439.49993164 -66.42442383 440.69102539 -65.8918457 441.91821289 C-65.38008789 443.04743164 -64.86833008 444.17665039 -64.34106445 445.34008789 C-63.65488037 446.88019531 -63.65488037 446.88019531 -62.95483398 448.45141602 C-61.54466633 450.96446248 -61.54466633 450.96446248 -59.07275391 451.7265625 C-55.70003629 451.82785524 -52.79423944 451.30429395 -49.4934082 450.59399414 C-48.52654335 450.39210732 -48.52654335 450.39210732 -47.54014587 450.18614197 C-45.48994309 449.75705933 -43.44278517 449.31527571 -41.39575195 448.87133789 C-39.35206692 448.43228473 -37.30789524 447.99621913 -35.2620697 447.56724548 C-33.40291231 447.17686289 -31.54586953 446.77644934 -29.68896484 446.37548828 C-26.45411282 445.82924663 -23.60280603 445.5451878 -20.33325195 445.80883789 C-17.76293945 447.97680664 -17.76293945 447.97680664 -15.20825195 450.99633789 C-14.256997 452.09188339 -13.30515183 453.18691663 -12.3527832 454.28149414 C-11.61729248 455.14411865 -11.61729248 455.14411865 -10.86694336 456.02416992 C-8.26859722 459.04771501 -5.58516845 461.99143179 -2.89575195 464.93383789 C-2.39994629 465.48966553 -1.90414062 466.04549316 -1.39331055 466.61816406 C2.10701371 470.49947474 2.10701371 470.49947474 6.66674805 472.80883789 C9.08832034 472.07537371 9.08832034 472.07537371 11.51831055 470.59008789 C12.45288086 470.06930664 13.38745117 469.54852539 14.3503418 469.01196289 C15.32100586 468.44993164 16.29166992 467.88790039 17.29174805 467.30883789 C18.23920898 466.77774414 19.18666992 466.24665039 20.1628418 465.69946289 C23.98046228 463.54780812 27.76776712 461.39947884 31.43139648 458.99243164 C32.30054688 458.4265332 33.16969727 457.86063477 34.06518555 457.27758789 C34.83266113 456.75616211 35.60013672 456.23473633 36.39086914 455.69750977 C38.66674805 454.80883789 38.66674805 454.80883789 41.13842773 455.48706055 C41.97277344 455.92324707 42.80711914 456.35943359 43.66674805 456.80883789 C44.89240479 457.43508057 44.89240479 457.43508057 46.14282227 458.07397461 C46.99376465 458.54077637 47.84470703 459.00757813 48.72143555 459.48852539 C50.13875977 460.26389648 50.13875977 460.26389648 51.5847168 461.05493164 C52.56053711 461.5924707 53.53635742 462.13000977 54.54174805 462.68383789 C55.50983398 463.21364258 56.47791992 463.74344727 57.4753418 464.28930664 C58.42280273 464.80879883 59.37026367 465.32829102 60.34643555 465.86352539 C61.26263672 466.36335938 62.17883789 466.86319336 63.12280273 467.37817383 C64.69820652 468.26414947 66.25590386 469.18355732 67.78100586 470.15356445 C69.76549018 471.46176735 69.76549018 471.46176735 72.66674805 472.80883789 C78.87524217 471.33115012 84.10604822 463.50815531 88.16674805 458.87133789 C88.7390918 458.22422852 89.31143555 457.57711914 89.90112305 456.91040039 C91.73487618 454.78083959 91.73487618 454.78083959 93.49487305 452.26977539 C94.1290918 451.43704102 94.76331055 450.60430664 95.41674805 449.74633789 C95.9684668 448.97161133 96.52018555 448.19688477 97.08862305 447.39868164 C104.68946059 442.71149849 118.70706522 448.36952832 126.87768555 450.16821289 C127.93987305 450.39250977 129.00206055 450.61680664 130.09643555 450.84790039 C131.04760254 451.05624512 131.99876953 451.26458984 132.97875977 451.47924805 C136.05230354 451.85611309 137.79483625 452.02732261 140.66674805 450.80883789 C142.19566784 448.36275817 143.31829026 446.1899951 144.4362793 443.56274414 C144.76214523 442.83643295 145.08801117 442.11012177 145.42375183 441.36180115 C146.46010962 439.03910333 147.46930194 436.70562237 148.47924805 434.37133789 C149.17746836 432.80224349 149.8773195 431.23387368 150.57885742 429.66625977 C154.05728456 422.94432621 154.05728456 422.94432621 155.66674805 415.80883789 C156.62709961 415.77145508 157.58745117 415.73407227 158.5769043 415.69555664 C171.04089417 415.12528854 183.31762956 413.54914187 195.66674805 411.80883789 C196.24289719 407.39884526 196.81230082 402.98804715 197.37573242 398.57641602 C197.56793459 397.07878701 197.76191096 395.5813845 197.95776367 394.08422852 C198.24054299 391.9201011 198.51672438 389.75521297 198.79174805 387.59008789 C198.95932617 386.29135742 199.1269043 384.99262695 199.29956055 383.65454102 C199.68109431 379.65858371 199.72916169 375.81891461 199.66674805 371.80883789 C200.87331055 371.43500977 202.07987305 371.06118164 203.32299805 370.67602539 C209.78798335 368.51511925 215.96084776 365.74028391 222.16674805 362.93383789 C223.3578418 362.41692383 224.54893555 361.90000977 225.77612305 361.36743164 C226.9053418 360.85567383 228.03456055 360.34391602 229.19799805 359.81665039 C230.73810547 359.13046631 230.73810547 359.13046631 232.30932617 358.43041992 C234.82237264 357.02025227 234.82237264 357.02025227 235.58447266 354.54833984 C235.6857654 351.17562223 235.16220411 348.26982538 234.4519043 344.96899414 C234.31731308 344.32441757 234.18272186 343.679841 234.04405212 343.01573181 C233.61496948 340.96552903 233.17318587 338.91837111 232.72924805 336.87133789 C232.29019489 334.82765286 231.85412929 332.78348118 231.42515564 330.73765564 C231.03477305 328.87849825 230.6343595 327.02145547 230.23339844 325.16455078 C229.68715678 321.92969875 229.40309796 319.07839197 229.66674805 315.80883789 C231.8347168 313.23852539 231.8347168 313.23852539 234.85424805 310.68383789 C235.94979355 309.73258294 237.04482678 308.78073776 238.1394043 307.82836914 C238.7144873 307.33804199 239.28957031 306.84771484 239.88208008 306.3425293 C242.90562517 303.74418316 245.84934195 301.06075439 248.79174805 298.37133789 C249.34757568 297.87553223 249.90340332 297.37972656 250.47607422 296.86889648 C254.3573849 293.36857223 254.3573849 293.36857223 256.66674805 288.80883789 C255.93328386 286.3872656 255.93328386 286.3872656 254.44799805 283.95727539 C253.9272168 283.02270508 253.40643555 282.08813477 252.86987305 281.12524414 C252.3078418 280.15458008 251.74581055 279.18391602 251.16674805 278.18383789 C250.6356543 277.23637695 250.10456055 276.28891602 249.55737305 275.31274414 C247.40571828 271.49512366 245.25738899 267.70781881 242.8503418 264.04418945 C242.28444336 263.17503906 241.71854492 262.30588867 241.13549805 261.41040039 C240.61407227 260.6429248 240.09264648 259.87544922 239.55541992 259.0847168 C238.66674805 256.80883789 238.66674805 256.80883789 239.27709961 254.43945312 C240.93750868 251.29628591 242.64812294 248.19140629 244.43237305 245.11743164 C245.16492877 243.83076882 245.89667613 242.54364549 246.62768555 241.25610352 C247.77467096 239.24148232 248.92617775 237.23012202 250.09155273 235.22607422 C251.21996982 233.28123931 252.32765114 231.325798 253.43237305 229.36743164 C253.96341644 228.47041786 253.96341644 228.47041786 254.50518799 227.55528259 C255.60107626 225.67258295 255.60107626 225.67258295 256.66674805 222.80883789 C254.74304423 216.45560634 247.57263475 211.55044107 242.72924805 207.30883789 C242.08213867 206.73649414 241.4350293 206.16415039 240.76831055 205.57446289 C238.63874975 203.74070976 238.63874975 203.74070976 236.12768555 201.98071289 C235.29495117 201.34649414 234.4622168 200.71227539 233.60424805 200.05883789 C232.82952148 199.50711914 232.05479492 198.95540039 231.2565918 198.38696289 C226.56940864 190.78612534 232.22743848 176.76852071 234.02612305 168.59790039 C234.36256836 167.00461914 234.36256836 167.00461914 234.70581055 165.37915039 C234.91415527 164.4279834 235.1225 163.47681641 235.3371582 162.49682617 C235.71402324 159.4232824 235.88523277 157.68074969 234.66674805 154.80883789 C232.22066833 153.27991809 230.04790525 152.15729568 227.4206543 151.03930664 C226.69434311 150.7134407 225.96803192 150.38757477 225.2197113 150.05183411 C222.89701349 149.01547632 220.56353252 148.006284 218.22924805 146.99633789 C216.66015364 146.29811758 215.09178384 145.59826644 213.52416992 144.89672852 C206.80223636 141.41830138 206.80223636 141.41830138 199.66674805 139.80883789 C199.62936523 138.84848633 199.59198242 137.88813477 199.5534668 136.89868164 C198.98319869 124.43469177 197.40705203 112.15795638 195.66674805 99.80883789 C191.25675542 99.23268875 186.84595731 98.66328512 182.43432617 98.09985352 C180.93669716 97.90765134 179.43929465 97.71367498 177.94213867 97.51782227 C175.77801125 97.23504295 173.61312313 96.95886156 171.44799805 96.68383789 C170.14926758 96.51625977 168.85053711 96.34868164 167.51245117 96.17602539 C163.51649387 95.79449163 159.67682477 95.74642425 155.66674805 95.80883789 C155.10600586 93.99899414 155.10600586 93.99899414 154.53393555 92.15258789 C152.37302941 85.68760259 149.59819406 79.51473817 146.79174805 73.30883789 C146.27483398 72.11774414 145.75791992 70.92665039 145.2253418 69.69946289 C144.71358398 68.57024414 144.20182617 67.44102539 143.67456055 66.27758789 C142.98837646 64.73748047 142.98837646 64.73748047 142.28833008 63.16625977 C140.87816243 60.6532133 140.87816243 60.6532133 138.40625 59.89111328 C135.03353239 59.78982054 132.12773553 60.31338183 128.8269043 61.02368164 C128.18232773 61.15827286 127.53775116 61.29286407 126.87364197 61.43153381 C124.82343918 61.86061645 122.77628127 62.30240007 120.72924805 62.74633789 C118.68556302 63.18539105 116.64139133 63.62145665 114.5955658 64.0504303 C112.7364084 64.44081289 110.87936562 64.84122644 109.02246094 65.2421875 C105.78760891 65.78842916 102.93630212 66.07248798 99.66674805 65.80883789 C97.09643555 63.64086914 97.09643555 63.64086914 94.54174805 60.62133789 C93.59049309 59.52579239 92.63864792 58.43075915 91.6862793 57.33618164 C91.19595215 56.76109863 90.705625 56.18601562 90.20043945 55.59350586 C87.60209332 52.56996077 84.91866455 49.62624399 82.22924805 46.68383789 C81.73344238 46.12801025 81.23763672 45.57218262 80.72680664 44.99951172 C77.25044426 41.04894531 77.25044426 41.04894531 72.66674805 38.80883789 C70.26975495 39.76385821 68.30664074 40.74168137 66.1081543 42.04321289 C65.16890358 42.57304779 65.16890358 42.57304779 64.2106781 43.11358643 C62.20794956 44.24711516 60.21859428 45.40201202 58.22924805 46.55883789 C56.24116575 47.69681206 54.25058603 48.83024114 52.25852966 49.96124268 C51.02018485 50.66628875 49.78456338 51.37614656 48.55213928 52.0914917 C41.68973568 56.04258918 41.68973568 56.04258918 38.66674805 56.80883789 C36.13061523 55.921875 36.13061523 55.921875 33.46362305 54.33618164 C32.48264648 53.76577148 31.50166992 53.19536133 30.4909668 52.60766602 C28.96922852 51.68630859 28.96922852 51.68630859 27.41674805 50.74633789 C25.41160943 49.56783384 23.40640201 48.38944686 21.40112305 47.21118164 C20.43625977 46.6373877 19.47139648 46.06359375 18.47729492 45.47241211 C15.849546 43.91703675 13.21358597 42.38145935 10.55737305 40.87524414 C9.49824707 40.27305054 9.49824707 40.27305054 8.41772461 39.65869141 C5.51307239 38.24889018 4.98144278 38.52808646 2.5300293 40.71508789 Z " fill="#203F9A" transform="translate(216.333251953125,0.191162109375)"/>
<path d="M0 0 C10.23 0 20.46 0 31 0 C36.68206072 16.85988509 42.17483195 33.75663914 47.45629883 50.74536133 C47.79967033 51.84705658 47.79967033 51.84705658 48.14997864 52.9710083 C48.58139151 54.3558139 49.01130888 55.74108657 49.4394989 57.12689209 C50.53265944 60.6362539 50.53265944 60.6362539 52 64 C52.90475459 61.69560827 53.7727232 59.38628595 54.625 57.0625 C54.88023437 56.42248047 55.13546875 55.78246094 55.3984375 55.12304688 C58.38773246 46.77793177 54.77942809 38.88562163 51.9609375 30.87890625 C51.67521881 30.05293442 51.38950012 29.22696259 51.09512329 28.3759613 C50.19308629 25.76982459 49.28459782 23.1660065 48.375 20.5625 C47.45894711 17.93377426 46.5443632 15.30456956 45.63345337 12.67405701 C45.06904631 11.04475497 44.50157979 9.41650888 43.93075562 7.78944397 C42 2.22428203 42 2.22428203 42 0 C50.58 0 59.16 0 68 0 C69.175625 3.7434375 69.175625 3.7434375 70.375 7.5625 C70.61782715 8.33408447 70.8606543 9.10566895 71.11083984 9.90063477 C71.74707948 11.93178711 72.3746572 13.96546791 73 16 C73.38414062 17.24652344 73.76828125 18.49304688 74.1640625 19.77734375 C75 23 75 23 75 27 C75.66 27 76.32 27 77 27 C77.226875 25.700625 77.45375 24.40125 77.6875 23.0625 C79.23705773 15.22422621 81.69509982 7.64256377 84 0 C92.58 0 101.16 0 110 0 C108.61651743 6.22567158 107.12660704 11.85373397 104.92578125 17.76171875 C104.33480113 19.39110009 103.74432082 21.02066279 103.15429688 22.65039062 C102.2316452 25.18035324 101.30471102 27.70851714 100.36889648 30.23364258 C99.45873989 32.69699342 98.5661487 35.16615854 97.67578125 37.63671875 C97.25091179 38.7619117 97.25091179 38.7619117 96.81745911 39.90983582 C94.4143203 46.64216094 95.55663909 51.24659371 98.0625 57.875 C98.60583984 59.32519531 98.60583984 59.32519531 99.16015625 60.8046875 C99.43730469 61.52914062 99.71445312 62.25359375 100 63 C101.97757307 60.0336404 102.82498617 57.75104107 103.86352539 54.36694336 C104.22052017 53.21242172 104.57751495 52.05790009 104.94532776 50.86839294 C105.32559616 49.62147171 105.70586456 48.37455048 106.09765625 47.08984375 C106.49549038 45.79840158 106.89380761 44.50710815 107.29258728 43.21595764 C108.3403066 39.81991357 109.38245938 36.42218839 110.42315674 33.02398682 C112.09107361 27.58076598 113.76704222 22.14002147 115.44372368 16.69949532 C116.028867 14.79778375 116.61125805 12.89522604 117.19361877 10.99266052 C117.5474614 9.84129105 117.90130402 8.68992157 118.26586914 7.50366211 C118.73314171 5.97835121 118.73314171 5.97835121 119.20985413 4.42222595 C120 2 120 2 121 0 C131.23 0 141.46 0 152 0 C146.84769229 15.00739292 141.07710407 29.7435077 135.25 44.5 C134.30182557 46.90875272 133.35390761 49.31760641 132.40625 51.7265625 C129.61323749 58.8213098 126.80868251 65.91144366 124 73 C123.28179077 74.81491943 123.28179077 74.81491943 122.54907227 76.66650391 C121.15551147 80.18512135 119.75811792 83.70218985 118.359375 87.21875 C117.72168182 88.82973572 117.72168182 88.82973572 117.07110596 90.4732666 C116.48628448 91.93959534 116.48628448 91.93959534 115.88964844 93.43554688 C115.37649078 94.72664368 115.37649078 94.72664368 114.85296631 96.04382324 C114 98 114 98 113 99 C111.21928754 99.08726223 109.4351686 99.10699041 107.65234375 99.09765625 C106.57275391 99.09443359 105.49316406 99.09121094 104.38085938 99.08789062 C103.24455078 99.07951172 102.10824219 99.07113281 100.9375 99.0625 C99.79732422 99.05798828 98.65714844 99.05347656 97.48242188 99.04882812 C94.65489649 99.03699747 91.8274736 99.0205141 89 99 C88.64172119 98.10168457 88.28344238 97.20336914 87.91430664 96.27783203 C86.58640351 92.94903269 85.25736405 89.62068804 83.92797852 86.29248047 C83.3524722 84.85119836 82.77727526 83.40979269 82.20239258 81.96826172 C81.37662513 79.897787 80.54975076 77.82775739 79.72265625 75.7578125 C79.46533218 75.11192169 79.20800812 74.46603088 78.94288635 73.80056763 C78.0216785 71.49740315 77.10990378 69.21980755 76 67 C75.46258179 68.34747314 75.46258179 68.34747314 74.91430664 69.72216797 C73.58640351 73.05096731 72.25736405 76.37931196 70.92797852 79.70751953 C70.3524722 81.14880164 69.77727526 82.59020731 69.20239258 84.03173828 C68.37662513 86.102213 67.54975076 88.17224261 66.72265625 90.2421875 C66.46533218 90.88807831 66.20800812 91.53396912 65.94288635 92.19943237 C65.0216785 94.50259685 64.10990378 96.78019245 63 99 C55.08 99 47.16 99 39 99 C35.72435902 91.92132059 32.6692802 84.82640543 29.8828125 77.54296875 C29.50831467 76.57265213 29.13381683 75.60233551 28.74797058 74.60261536 C27.94954864 72.53321588 27.15253593 70.46327222 26.35684204 68.39282227 C24.26138918 62.94033608 22.15599395 57.49169257 20.05078125 52.04296875 C19.6277623 50.94749725 19.20474335 49.85202576 18.76890564 48.72335815 C14.0403043 36.49210611 9.21539212 24.29924179 4.36962891 12.11401367 C4.07147781 11.36254562 3.77332672 10.61107758 3.46614075 9.83683777 C2.91287723 8.44252817 2.35818372 7.04878483 1.80180359 5.65571594 C0 1.11254255 0 1.11254255 0 0 Z " fill="#203F9A" transform="translate(273,201)"/>
<path d="M0 0 C7.26 0 14.52 0 22 0 C26.22039915 4.82331332 30.33706643 9.57461172 34.25 14.625 C35.19917145 15.84118275 36.14839165 17.05732746 37.09765625 18.2734375 C37.57605957 18.88799805 38.05446289 19.50255859 38.54736328 20.13574219 C40.91949488 23.18004419 43.30350561 26.2149853 45.6875 29.25 C46.10225586 29.77932129 46.51701172 30.30864258 46.94433594 30.85400391 C50.92853711 35.93114742 54.96767062 40.95958828 59 46 C59.33 30.82 59.66 15.64 60 0 C69.57 0 79.14 0 89 0 C89 32.67 89 65.34 89 99 C65 99 65 99 57.6875 91.875 C55.92480469 89.48608398 55.92480469 89.48608398 54.734375 87.43359375 C52.2328948 83.31679602 49.47322843 79.68070751 46.4375 75.9375 C44.643125 73.648125 42.84875 71.35875 41 69 C35.06 61.575 35.06 61.575 29 54 C28.67 68.85 28.34 83.7 28 99 C18.76 99 9.52 99 0 99 C0 66.33 0 33.66 0 0 Z " fill="#203F9A" transform="translate(96,201)"/>
<path d="M0 0 C23.1 0 46.2 0 70 0 C70 7.92 70 15.84 70 24 C56.14 24 42.28 24 28 24 C28 28.29 28 32.58 28 37 C39.88 37 51.76 37 64 37 C64 44.59 64 52.18 64 60 C52.12 60 40.24 60 28 60 C28 64.95 28 69.9 28 75 C42.19 75 56.38 75 71 75 C71 82.92 71 90.84 71 99 C47.57 99 24.14 99 0 99 C0 66.33 0 33.66 0 0 Z " fill="#203F9A" transform="translate(201,201)"/>
</svg>
