<?xml version="1.0" encoding="UTF-8"?>
<svg version="1.1" xmlns="http://www.w3.org/2000/svg" width="512" height="512">
<path d="M0 0 C0.72826492 -0.00983917 1.45652985 -0.01967834 2.2068634 -0.02981567 C33.72520603 -0.36777469 72.61044733 3.57868258 97.57421875 25.453125 C102.24042624 30.85174987 102.41819004 36.3729271 101.9296875 43.30078125 C101.00284401 48.63299197 99.83366698 51.21824271 95.5546875 54.55078125 C93.74261979 55.78058513 91.9301173 57.00974859 90.1171875 58.23828125 C73.71005065 72.70735825 61.33804189 95.93867824 59.94018555 118.03637695 C59.48555134 139.38607199 60.91558368 160.65324544 74.1171875 178.48828125 C76.90725687 182.63667386 76.35148799 186.53369145 75.69140625 191.3359375 C74.25141594 198.61425588 72.26787542 202.91971314 66.1171875 207.23828125 C62.97696569 208.80839216 59.6203676 208.38626325 56.17242432 208.38545227 C55.34190418 208.38912896 54.51138404 208.39280565 53.65569663 208.39659375 C50.85672129 208.40765745 48.05778303 208.41147897 45.25878906 208.4152832 C43.2584013 208.42154582 41.2580147 208.42819244 39.25762939 208.43519592 C33.81124172 208.45262432 28.36486284 208.46316268 22.91845417 208.47140145 C19.5176128 208.47654767 16.11677418 208.48262357 12.71593475 208.48891258 C2.08099474 208.50796972 -8.55393831 208.52219979 -19.18889213 208.53052455 C-31.47532353 208.54030013 -43.76157492 208.56662592 -56.04794288 208.60702544 C-65.53759661 208.63716078 -75.02719868 208.65199097 -84.51689935 208.65530556 C-90.18787884 208.65765899 -95.85866615 208.66665745 -101.52959442 208.69176674 C-106.86477646 208.71500723 -112.19963922 208.71929683 -117.5348587 208.70900536 C-119.49322063 208.70850891 -121.45159805 208.71486136 -123.40991211 208.7285614 C-126.08369731 208.74622029 -128.75632926 208.73920393 -131.43011475 208.72602844 C-132.20502691 208.73699769 -132.97993907 208.74796693 -133.77833343 208.75926858 C-138.96905466 208.69751974 -141.87312122 207.49260234 -145.8828125 204.23828125 C-150.9992953 198.80897943 -150.44852446 193.08435093 -150.37890625 186.03515625 C-150.38036148 184.84335754 -150.38181671 183.65155884 -150.38331604 182.42364502 C-150.38165747 179.89861613 -150.37010103 177.3735771 -150.34936523 174.84863281 C-150.32072555 171.04316509 -150.32869653 167.23912011 -150.34179688 163.43359375 C-150.32773859 146.45967658 -149.27707581 130.38663707 -144.1328125 114.11328125 C-143.87604736 113.28473633 -143.61928223 112.45619141 -143.35473633 111.60253906 C-129.88914943 69.40361713 -100.47532252 36.38475219 -61.57495117 15.86279297 C-42.80582461 6.43988718 -21.05897031 0.2361191 0 0 Z " fill="#00ADEF" transform="translate(245.8828125,239.76171875)"/>
<path d="M0 0 C1.30365551 1.08998583 2.59459989 2.19528814 3.875 3.3125 C4.84308594 4.08464844 5.81117188 4.85679688 6.80859375 5.65234375 C16.40913081 13.66632589 22.45343272 24.82246134 26.875 36.3125 C27.30941406 37.42496094 27.74382812 38.53742188 28.19140625 39.68359375 C34.70949162 59.69207183 32.11980722 82.03972185 23.0625 100.6875 C19.95415425 106.77552518 16.35705254 112.13679648 11.875 117.3125 C11.27816406 118.10527344 10.68132812 118.89804688 10.06640625 119.71484375 C1.86635931 129.43504199 -9.38512742 135.85794315 -21.125 140.3125 C-22.23617187 140.745625 -23.34734375 141.17875 -24.4921875 141.625 C-44.4933664 148.15599719 -66.8577544 145.55572972 -85.5 136.5 C-91.58504784 133.38997734 -96.96623805 129.81377268 -102.125 125.3125 C-103.09308594 124.54035156 -104.06117188 123.76820313 -105.05859375 122.97265625 C-114.65913081 114.95867411 -120.70343272 103.80253866 -125.125 92.3125 C-125.77662109 90.64380859 -125.77662109 90.64380859 -126.44140625 88.94140625 C-132.95927113 68.93360501 -130.37054734 46.58451668 -121.3125 27.9375 C-118.20247734 21.85245216 -114.62627268 16.47126195 -110.125 11.3125 C-108.96677734 9.86037109 -108.96677734 9.86037109 -107.78515625 8.37890625 C-99.77117411 -1.22163081 -88.61503866 -7.26593272 -77.125 -11.6875 C-76.01253906 -12.12191406 -74.90007812 -12.55632812 -73.75390625 -13.00390625 C-49.0695884 -21.04522205 -20.46495623 -15.7264261 0 0 Z " fill="#00ADEF" transform="translate(305.125,79.6875)"/>
<path d="M0 0 C2.11659296 1.63219855 4.14802003 3.31717231 6.16796875 5.06640625 C7.37453125 5.9790625 7.37453125 5.9790625 8.60546875 6.91015625 C21.27781712 17.57347378 31.23654149 36.72304434 33.16796875 53.06640625 C34.91017308 76.56283158 31.40197451 98.54087082 15.90625 117.07421875 C15.33261719 117.73164063 14.75898438 118.3890625 14.16796875 119.06640625 C13.39324219 120.03578125 12.61851562 121.00515625 11.8203125 122.00390625 C-0.67722408 136.96907943 -20.73939708 144.90036813 -39.67041016 146.72021484 C-61.59441061 148.42851025 -82.92440794 141.79768573 -99.76953125 127.69140625 C-114.33991669 114.95023175 -123.47538246 98.12216398 -126.83203125 79.06640625 C-128.34697917 55.8177021 -125.28312606 33.57671823 -109.796875 15.2109375 C-109.14847656 14.50324219 -108.50007813 13.79554688 -107.83203125 13.06640625 C-107.00832031 12.16277344 -106.18460937 11.25914062 -105.3359375 10.328125 C-96.51863964 1.08559575 -86.75457351 -5.36617333 -74.83203125 -9.93359375 C-73.80464844 -10.32804687 -72.77726562 -10.7225 -71.71875 -11.12890625 C-47.5142018 -18.96865799 -20.77990266 -14.18765768 0 0 Z M-60.14453125 42.00390625 C-62.95711766 47.10822974 -63.03855949 52.07813378 -63.08203125 57.81640625 C-63.10265625 58.4815625 -63.12328125 59.14671875 -63.14453125 59.83203125 C-63.20956384 68.28626832 -61.14155976 74.03469443 -55.3046875 80.25 C-53.51664307 82.0169621 -51.71276606 83.76802603 -49.89453125 85.50390625 C-48.98767578 86.40044922 -48.08082031 87.29699219 -47.14648438 88.22070312 C-40.21614169 95.27401772 -40.21614169 95.27401772 -30.95703125 97.44140625 C-26.14802108 97.32825307 -23.47788163 96.36503278 -19.83203125 93.06640625 C-16.60813962 89.5031576 -15.54415544 86.77556318 -15.33203125 82.06640625 C-15.57623321 77.23982642 -16.58514334 74.77713529 -19.83203125 71.06640625 C-20.63125 70.39867187 -21.43046875 69.7309375 -22.25390625 69.04296875 C-28.11068734 63.94790775 -30.63076971 60.45844001 -31.20703125 52.81640625 C-31.24207764 51.80634521 -31.24207764 51.80634521 -31.27783203 50.77587891 C-31.47568153 45.74253782 -32.70196397 42.99049795 -35.83203125 39.06640625 C-40.1826447 35.13013693 -43.74980131 34.42756706 -49.43359375 34.68359375 C-54.49034384 35.49069718 -57.07600379 38.10604704 -60.14453125 42.00390625 Z " fill="#00ADEF" transform="translate(446.83203125,301.93359375)"/>
</svg>
