<?xml version="1.0" encoding="UTF-8"?>
<svg version="1.1" xmlns="http://www.w3.org/2000/svg" width="512" height="512">
<path d="M0 0 C0.79664063 0.73734375 1.59328125 1.4746875 2.4140625 2.234375 C3.19007813 2.93046875 3.96609375 3.6265625 4.765625 4.34375 C21.87261499 20.45136257 32.92044397 44.31271028 33.71484375 67.8125 C33.73409626 69.70303101 33.73767134 71.5937786 33.7265625 73.484375 C33.71919067 74.98762329 33.71919067 74.98762329 33.71166992 76.52124023 C33.33948328 100.26674774 24.36928476 123.44603485 7.4140625 140.234375 C6.5890625 141.100625 5.7640625 141.966875 4.9140625 142.859375 C4.0890625 143.643125 3.2640625 144.426875 2.4140625 145.234375 C1.84042969 145.81445312 1.26679688 146.39453125 0.67578125 146.9921875 C-17.03476888 164.00232039 -41.86467233 170.78358304 -65.88647461 170.65600586 C-93.69823229 169.96305605 -116.47728072 157.63576545 -135.640625 138.14453125 C-153.27019765 118.9870623 -160.39567642 93.80328974 -159.67041016 68.25976562 C-158.81761314 47.81235507 -150.89733378 27.74117902 -137.5859375 12.234375 C-136.89628906 11.41195312 -136.20664063 10.58953125 -135.49609375 9.7421875 C-121.41594913 -6.5402996 -101.0753017 -18.5019543 -79.5859375 -21.765625 C-78.59013672 -21.92998047 -78.59013672 -21.92998047 -77.57421875 -22.09765625 C-50.03706484 -25.91519145 -21.03560888 -18.42998965 0 0 Z " fill="#0370D7" transform="translate(265.5859375,128.765625)"/>
<path d="M0 0 C3.67779498 0.01707482 7.35493734 0.00691257 11.03271008 -0.01032162 C56.81767548 -0.19186863 105.54361666 3.09950867 140.73022461 35.70361328 C152.42351373 48.11871037 164.49424924 68.20282771 165.54272461 85.51611328 C165.24942333 91.79680622 162.64203692 97.34394476 158.52319336 102.05908203 C151.98125307 107.94510218 144.70097031 107.68199667 136.41690063 107.65853882 C134.65970831 107.66533549 134.65970831 107.66533549 132.86701715 107.67226946 C129.62372376 107.68272797 126.38057007 107.68424131 123.13726521 107.68188071 C119.63614634 107.68147206 116.13506038 107.69251624 112.63395691 107.70199585 C105.77801164 107.71859573 98.92210077 107.72410492 92.06613709 107.72522061 C86.49283088 107.72617147 80.919536 107.73028369 75.34623337 107.73662186 C59.54033116 107.75423078 43.73445609 107.76346116 27.928544 107.76196091 C27.07677048 107.761881 26.22499695 107.76180108 25.34741211 107.76171875 C24.06818969 107.76159611 24.06818969 107.76159611 22.76312439 107.76147099 C8.94019672 107.76065798 -4.88262201 107.7798003 -18.70551817 107.80799548 C-32.90323032 107.83672643 -47.10088935 107.85053569 -61.29863131 107.84880793 C-69.26783323 107.84814415 -77.23692092 107.85363146 -85.20609665 107.87516403 C-91.9906397 107.89337852 -98.77501672 107.89772096 -105.55957364 107.88414519 C-109.01987799 107.87761706 -112.47986384 107.87749227 -115.94013786 107.89485168 C-119.69453852 107.9102592 -123.44810184 107.90102427 -127.20248413 107.8855896 C-128.8364442 107.90102029 -128.8364442 107.90102029 -130.50341356 107.91676271 C-138.48637617 107.84420665 -143.72595058 106.17256535 -149.83227539 101.01611328 C-154.5820501 95.31638363 -156.32650251 89.75256417 -156.01977539 82.39111328 C-153.10154132 66.93680326 -144.93615458 52.36949949 -135.01977539 40.39111328 C-134.55442383 39.76333984 -134.08907227 39.13556641 -133.60961914 38.48876953 C-115.86488328 15.42603943 -83.350359 6.74838202 -56.00794983 2.9755249 C-37.29271046 0.6060914 -18.83765943 -0.08821025 0 0 Z " fill="#0370D7" transform="translate(198.019775390625,319.60888671875)"/>
<path d="M0 0 C7.43056268 4.26569339 13.37509958 10.79443976 19.375 16.83984375 C20.0961499 17.5624086 20.8172998 18.28497345 21.56030273 19.0294342 C23.83425415 21.30892604 26.10467954 23.5918924 28.375 25.875 C29.92815235 27.43317506 31.48153567 28.99111993 33.03515625 30.54882812 C36.81777586 34.34239759 40.5975169 38.13881615 44.375 41.9375 C49.38453709 37.7472966 54.05483635 33.36894783 58.62890625 28.7109375 C59.99140194 27.3358042 61.35403628 25.96080827 62.71679688 24.5859375 C64.83391273 22.44397807 66.94937692 20.30043611 69.06225586 18.15429688 C71.12169479 16.06456156 73.18738793 13.98116904 75.25390625 11.8984375 C75.87906631 11.25981781 76.50422638 10.62119812 77.14833069 9.96322632 C83.86022615 3.21338242 89.64987663 -0.3984802 99.375 -1.0625 C106.03853565 -0.51387271 111.19771512 2.51829458 115.625 7.4375 C119.62861712 13.15695304 120.80124917 18.36840802 120.15234375 25.32421875 C118.96116456 30.80364303 116.4870835 34.24717974 112.68359375 38.30859375 C112.20621262 38.81948547 111.72883148 39.3303772 111.23698425 39.85675049 C104.7107475 46.78623324 97.9397068 53.47969907 91.1875 60.1875 C89.84025823 61.52971051 88.49325163 62.87215711 87.14648438 64.21484375 C83.892018 67.45844768 80.63441952 70.69887372 77.375 73.9375 C81.70354483 79.12235577 86.25991484 83.9305466 91.07421875 88.6640625 C92.54505409 90.12226249 94.01575322 91.58059987 95.48632812 93.0390625 C97.78202913 95.30988787 100.07931127 97.57906855 102.37915039 99.84570312 C104.61524755 102.05158597 106.84507392 104.26365736 109.07421875 106.4765625 C109.76174728 107.15063141 110.44927582 107.82470032 111.15763855 108.51919556 C117.03067214 114.36127644 120.42948085 119.19184787 120.6875 127.625 C120.58509144 133.94640083 119.10708241 139.22285642 114.5390625 143.76171875 C108.58175523 148.47506722 103.05694319 150.59973648 95.375 149.9375 C85.26349799 147.69954181 78.39281426 139.10619399 71.375 132.03515625 C70.6538501 131.3125914 69.9327002 130.59002655 69.18969727 129.8455658 C66.91574585 127.56607396 64.64532046 125.2831076 62.375 123 C60.82184765 121.44182494 59.26846433 119.88388007 57.71484375 118.32617188 C53.93222414 114.53260241 50.1524831 110.73618385 46.375 106.9375 C43.27891939 108.31097423 41.21633266 109.86974591 38.86669922 112.2980957 C37.8644783 113.3247509 37.8644783 113.3247509 36.8420105 114.37214661 C36.12844391 115.11172104 35.41487732 115.85129547 34.6796875 116.61328125 C33.14367647 118.17947527 31.60720316 119.74521602 30.0703125 121.31054688 C27.66245856 123.77397044 25.25868818 126.24102121 22.86328125 128.71655273 C20.54268039 131.1102717 18.20620085 133.48756885 15.8671875 135.86328125 C14.81505569 136.96353386 14.81505569 136.96353386 13.7416687 138.08601379 C8.19939136 143.68341089 2.11145034 147.97708627 -5.7265625 149.56640625 C-12.80748137 149.38006628 -18.11690023 148.234645 -23.37890625 143.2890625 C-27.80712239 138.40201915 -29.91095532 133.92997766 -30.125 127.25 C-30.1765625 126.29738281 -30.228125 125.34476562 -30.28125 124.36328125 C-28.52938189 115.21811259 -21.61741189 108.36317008 -15.1640625 102.0859375 C-14.37349457 101.30102936 -13.58292664 100.51612122 -12.7684021 99.70742798 C-10.27159905 97.23279568 -7.7611766 94.7725364 -5.25 92.3125 C-3.54204369 90.62463348 -1.83500336 88.93583954 -0.12890625 87.24609375 C4.02854177 83.13245663 8.19722737 79.03048867 12.375 74.9375 C10.96607886 71.73448781 9.29286306 69.62366706 6.79907227 67.18212891 C6.06813858 66.46102936 5.3372049 65.73992981 4.5841217 64.99697876 C3.7945256 64.22711639 3.0049295 63.45725403 2.19140625 62.6640625 C0.52527088 61.01835039 -1.14074092 59.37251317 -2.80664062 57.7265625 C-5.4353887 55.14129526 -8.06654407 52.55853865 -10.70043945 49.97851562 C-13.24296377 47.48434095 -15.77615875 44.98097463 -18.30859375 42.4765625 C-19.09616562 41.7107486 -19.88373749 40.94493469 -20.69517517 40.15591431 C-26.5975111 34.30730407 -30.22786716 29.10022687 -30.875 20.6875 C-30.39486184 13.48542762 -27.89542228 7.97877349 -22.625 2.9375 C-15.39988927 -1.66940229 -8.15734495 -2.39094593 0 0 Z " fill="#0370D7" transform="translate(349.625,43.0625)"/>
</svg>
