<?xml version="1.0" encoding="UTF-8"?>
<svg version="1.1" xmlns="http://www.w3.org/2000/svg" width="512" height="512">
<path d="M0 0 C1.56234375 1.21236328 1.56234375 1.21236328 3.15625 2.44921875 C14.59213021 11.55278129 14.59213021 11.55278129 15.5 17 C14.86089908 20.83460553 13.89357127 22.40320527 11 25 C7.33229348 26.06696917 5.15904654 26.58148112 1.6875 24.83984375 C-0.9221183 23.05331727 -3.3385874 21.11814157 -5.75439453 19.0793457 C-40.00546032 -9.65436639 -85.33581755 -22.96084342 -129.6875 -19.3125 C-170.67093316 -15.40423276 -205.98735195 2.13111253 -236 30 C-236.59296875 30.53882813 -237.1859375 31.07765625 -237.796875 31.6328125 C-243.92377362 37.43877834 -248.9741467 44.24656472 -254 51 C-254.42716309 51.57218262 -254.85432617 52.14436523 -255.29443359 52.73388672 C-268.03509278 70.07852287 -276.65911048 90.22573003 -282 111 C-282.22300781 111.86399414 -282.44601562 112.72798828 -282.67578125 113.61816406 C-293.37325381 157.44170581 -283.94145293 204.7462639 -261 243 C-249.32794829 261.78261195 -233.70995925 277.89980438 -216 291 C-215.14607666 291.63639404 -215.14607666 291.63639404 -214.27490234 292.28564453 C-179.21307918 318.04596767 -133.28020849 328.42062779 -90.43359375 322.24609375 C-48.43642933 315.52345319 -12.4294183 295.60642746 16 264 C16.66 263.01 17.32 262.02 18 261 C16.93523437 260.64808594 15.87046875 260.29617188 14.7734375 259.93359375 C-5.08245772 253.23826871 -25.44160451 243.57614726 -38 226 C-38.71253588 221.56644342 -38.53327109 219.7595073 -35.9375 216.0625 C-33 214 -33 214 -29.6875 213.25 C-24.37881475 214.32973259 -21.82685469 217.32649832 -18 221 C2.15291899 238.69095681 26.69362905 246.56867407 53.38085938 245.21582031 C64.77498776 244.27693054 75.75558634 241.02694404 86 236 C86.93199219 235.54753906 87.86398437 235.09507812 88.82421875 234.62890625 C95.55931317 231.16272795 101.22747853 226.87343848 107 222 C108.546875 220.824375 108.546875 220.824375 110.125 219.625 C121.75970236 209.00201089 130.34093136 193.94556136 135 179 C135.31839844 178.00742187 135.63679688 177.01484375 135.96484375 175.9921875 C141.93231661 153.60728932 138.70599135 128.38256045 128 108 C114.8824211 85.5478787 95.42103762 68.5610654 69.9453125 61.70703125 C68.97335937 61.47371094 68.00140625 61.24039063 67 61 C65.75863281 60.66548828 65.75863281 60.66548828 64.4921875 60.32421875 C40.67335122 54.83617967 15.06173781 60.79095231 -5.54003906 73.24487305 C-11.41638974 77.00965505 -16.41868392 81.62604657 -21.390625 86.49609375 C-24.75450605 89.72400955 -26.22979026 90.92664669 -30.9375 91.375 C-33.85144391 91.27840517 -34.92600406 91.04439756 -37.5 89.5 C-39.19019353 86.68301079 -39.7553017 84.43324904 -39.56640625 81.13671875 C-38.40872852 76.7694793 -35.19507434 74.02991007 -32 71 C-30.80697266 69.84757812 -30.80697266 69.84757812 -29.58984375 68.671875 C-24.69576822 64.10306261 -19.80428278 60.33208826 -14 57 C-21.93050398 39.3981497 -48.56718434 27.2542229 -65.44921875 20.859375 C-79.22787453 15.94448855 -93.34816006 12.69171777 -108 12 C-108.99386719 11.94714844 -109.98773438 11.89429688 -111.01171875 11.83984375 C-144.89023882 10.91770652 -179.386009 22.73817561 -205 45 C-206.24523437 46.06347656 -206.24523437 46.06347656 -207.515625 47.1484375 C-236.67257509 72.6384092 -251.85146048 107.23349881 -254.71484375 145.53125 C-256.88111095 180.98150298 -243.95205321 216.20049279 -221 243 C-220.27941406 243.84304688 -219.55882812 244.68609375 -218.81640625 245.5546875 C-194.04383536 273.80486366 -159.17591872 289.35768396 -122 292 C-90.48809713 293.66582746 -55.96046794 284.19664783 -31.17578125 264.21484375 C-28.29354001 262.60554927 -26.25300412 262.6983101 -23 263 C-18.36764706 265.26470588 -18.36764706 265.26470588 -17 268 C-16.50780699 272.26567275 -16.53012846 274.32170295 -19.0078125 277.8984375 C-22.2365715 281.54804146 -26.08199085 283.91604899 -30.25 286.375 C-31.43928101 287.08499146 -31.43928101 287.08499146 -32.65258789 287.80932617 C-70.37463147 309.95451238 -114.37381283 316.00161256 -156.84130859 305.10107422 C-195.6497238 294.50270628 -230.65583208 268.60707447 -250.86254883 233.59667969 C-252.63509472 230.42671781 -254.34006569 227.23022745 -256 224 C-256.4007373 223.24525391 -256.80147461 222.49050781 -257.21435547 221.71289062 C-260.47175141 215.44455055 -262.92391814 209.08166664 -265.125 202.375 C-265.47119385 201.32683105 -265.8173877 200.27866211 -266.17407227 199.19873047 C-279.13205888 158.96385801 -274.07659589 115.17739732 -255.10253906 77.73217773 C-247.74688858 63.66284342 -237.7712899 51.57340723 -227 40 C-226.06414062 38.98292969 -226.06414062 38.98292969 -225.109375 37.9453125 C-199.28616099 10.9285886 -159.56630926 -5.15584898 -122.55078125 -6.21875 C-78.39254195 -7.02074667 -38.41883234 6.37556797 -6 37 C-4.31471312 38.64783606 -2.64302953 40.31002677 -1 42 C-0.071875 42.928125 0.85625 43.85625 1.8125 44.8125 C2.534375 45.534375 3.25625 46.25625 4 47 C4.62003906 46.81824219 5.24007813 46.63648438 5.87890625 46.44921875 C38.0254532 37.32465302 70.07951157 37.82812649 100.015625 53.87451172 C125.50784498 68.33306661 144.54045588 92.07926213 153.0390625 120.13671875 C160.93579104 151.88413552 157.2669821 183.65302688 140.35400391 211.89160156 C124.06738205 237.25245017 98.66972827 254.87598049 69.38525391 261.52734375 C61.74195275 263.04192216 53.41574203 264.36141845 45.61108398 263.84057617 C43.3116896 263.69199117 41.27519236 263.62829495 39 264 C36.19279651 266.33144649 36.19279651 266.33144649 34.1875 269.6875 C33.35614705 270.88561655 32.51867577 272.07950611 31.67578125 273.26953125 C31.24475098 273.88650879 30.8137207 274.50348633 30.36962891 275.13916016 C28.08332897 278.24543076 25.50177127 281.05587363 22.875 283.875 C22.40860107 284.38506592 21.94220215 284.89513184 21.46166992 285.4206543 C-5.90426406 314.7714851 -44.81176394 333.36774557 -84 340 C-84.67353516 340.11714355 -85.34707031 340.23428711 -86.04101562 340.35498047 C-132.91111533 348.15507372 -184.12394179 336.26876196 -222.9375 309.0625 C-265.80754113 278.08830799 -294.39712357 233.8483274 -303.10083008 181.45043945 C-310.5682665 133.26701889 -299.23051601 81.85101224 -270.65917969 42.13623047 C-264.32826017 33.59382536 -257.32893365 25.69153456 -250 18 C-249.27425781 17.22140625 -248.54851562 16.4428125 -247.80078125 15.640625 C-184.32641301 -50.53228385 -71.43906292 -55.83431812 0 0 Z " fill="#9966CD" transform="translate(330,104)"/>
<path d="M0 0 C3.33761045 2.15090451 4.73470933 3.20412799 6 7 C6.12979439 10.00603796 6.04363173 12.98941031 6 16 C10.29 16 14.58 16 19 16 C18.896875 14.288125 18.79375 12.57625 18.6875 10.8125 C18.698024 6.72918826 18.78701464 5.32915919 21.0625 1.8125 C24.7895377 -0.48716156 26.69247137 -0.76920154 31 0 C33.9375 1.8125 33.9375 1.8125 36 5 C36.40594933 8.70558872 36.29247067 12.2888722 36 16 C36.60585937 16.02578125 37.21171875 16.0515625 37.8359375 16.078125 C50.71770989 16.9501219 59.89656153 22.48986738 68.75 31.6875 C75.51685575 39.72904253 78.43143471 50.02390299 78.265625 60.359375 C78 63 78 63 76.5625 66.1875 C73.3190401 68.48165456 71.11267375 68.55973857 67.21875 68.56640625 C64.12101919 67.77561229 62.93359982 66.52300854 61 64 C60.3125 61.265625 60.3125 61.265625 60 58.25 C58.82681621 50.00763182 56.48664353 44.4692662 49.86328125 39.25 C45.47514358 36.30617598 41.20918357 35.04183671 36 34 C36 58.42 36 82.84 36 108 C40.29 108.66 44.58 109.32 49 110 C60.50920158 114.57594762 69.93967874 122.50786855 75 134 C78.67004545 142.5246908 78.49265397 151.21805777 78.44604492 160.33056641 C78.43753985 162.86313394 78.46636185 165.39343558 78.49804688 167.92578125 C78.56032386 182.25317625 76.11066881 194.40673861 65.96484375 205.15625 C57.54340593 213.11725647 47.69779849 218 36 218 C36.05800781 218.73605469 36.11601562 219.47210938 36.17578125 220.23046875 C36.54247926 228.16162295 36.54247926 228.16162295 33.9375 232.1875 C30.2104623 234.48716156 28.30752863 234.76920154 24 234 C21.0625 232.1875 21.0625 232.1875 19 229 C18.58683255 225.22852276 18.77018723 221.81489198 19 218 C14.71 218 10.42 218 6 218 C6.0928125 220.0728125 6.0928125 220.0728125 6.1875 222.1875 C6.1875 226.29569794 5.67122715 228.73516682 3 232 C-0.48804095 234.32536063 -1.90140754 234.33457898 -6 234 C-8.58035645 233.13988118 -9.65071065 232.55489939 -11.1015625 230.25 C-12.16256539 227.59287973 -12.20001473 225.6005597 -12.125 222.75 C-12.10695312 221.85796875 -12.08890625 220.9659375 -12.0703125 220.046875 C-12.04710937 219.37140625 -12.02390625 218.6959375 -12 218 C-13.258125 217.9175 -14.51625 217.835 -15.8125 217.75 C-28.40389289 216.26982058 -37.77155709 210.30818328 -45.875 200.6875 C-51.64558559 192.83460405 -54.49814681 182.87649376 -54.3359375 173.16015625 C-54 171 -54 171 -52 167.9375 C-47.83994881 165.25080027 -45.89701312 165.3004267 -41 166 C-36.94217037 169.03786884 -36.3677156 171.79526461 -35.625 176.6875 C-34.00872715 185.00222984 -31.26306595 191.085298 -24.125 195.9375 C-20.11943339 198.35644607 -16.91517627 198.77120593 -12 200 C-12 175.58 -12 151.16 -12 126 C-15.96 125.34 -19.92 124.68 -24 124 C-36.10187362 119.65677202 -44.27625703 112.41171255 -50 101 C-53.0460243 94.1702424 -54.15688715 87.89613662 -54.203125 80.4609375 C-54.20882507 79.73943512 -54.21452515 79.01793274 -54.22039795 78.27456665 C-54.22981511 76.74995371 -54.23636883 75.22532072 -54.24023438 73.70068359 C-54.24988266 71.40294387 -54.28091207 69.10612181 -54.3125 66.80859375 C-54.42478949 51.15397355 -51.32794938 38.91425901 -40.4296875 27.265625 C-36.94097407 24.01248386 -33.34844467 21.90584784 -29 20 C-28.33097656 19.69449219 -27.66195312 19.38898438 -26.97265625 19.07421875 C-22.07097696 17.02619037 -17.27881958 16.3543652 -12 16 C-12.02320313 15.32453125 -12.04640625 14.6490625 -12.0703125 13.953125 C-12.08835938 13.06109375 -12.10640625 12.1690625 -12.125 11.25 C-12.14820313 10.36828125 -12.17140625 9.4865625 -12.1953125 8.578125 C-11.98882349 5.85247002 -11.44664384 4.29821433 -10 2 C-6.77706714 -0.3020949 -3.88003676 -0.47510654 0 0 Z M-28.875 40.64453125 C-34.45741364 46.82705435 -36.46699042 53.01553551 -36.43359375 61.27734375 C-36.4388356 62.04752335 -36.44407745 62.81770294 -36.44947815 63.61122131 C-36.45586519 65.23062949 -36.45460462 66.85008427 -36.44604492 68.46948242 C-36.43753368 70.92777249 -36.46634105 73.38373559 -36.49804688 75.84179688 C-36.49965935 77.42447848 -36.49908046 79.00716414 -36.49609375 80.58984375 C-36.51294472 81.67615334 -36.51294472 81.67615334 -36.53013611 82.78440857 C-36.43074988 90.1745722 -33.22370764 96.77629236 -28 102 C-22.49998946 105.7772446 -18.81581449 107.02631222 -12 108 C-12 83.58 -12 59.16 -12 34 C-18.68378827 34 -23.81588254 36.20726364 -28.875 40.64453125 Z M6 34 C6 58.42 6 82.84 6 108 C10.29 108 14.58 108 19 108 C19 83.58 19 59.16 19 34 C14.71 34 10.42 34 6 34 Z M6 126 C6 150.42 6 174.84 6 200 C10.29 200 14.58 200 19 200 C19 175.58 19 151.16 19 126 C14.71 126 10.42 126 6 126 Z M36 126 C36 150.42 36 174.84 36 200 C44.79049026 198.90118872 49.29111281 197.1015044 55.3125 190.8125 C61.60883237 182.64952537 61.46976923 172.83035448 61.375 162.9375 C61.38660156 161.72255859 61.39820313 160.50761719 61.41015625 159.25585938 C61.37514062 148.4885539 59.64364748 139.91971602 52 132 C46.55724198 127.45873399 43.45415163 126.93176895 36 126 Z " fill="#9966CD" transform="translate(203,139)"/>
<path d="M0 0 C7.07840049 4.85883476 12.97935445 11.86215883 19 17.9375 C19.97502386 18.9175531 20.9502828 19.8973724 21.92578125 20.87695312 C24.28616618 23.24902313 26.64416905 25.6234086 29 28 C33.37493872 24.44422456 37.32665521 20.68707467 41.21484375 16.6015625 C42.15798492 15.61828024 43.10134786 14.63521065 44.04492188 13.65234375 C45.50120846 12.13421857 46.95012552 10.61140329 48.3815918 9.06982422 C57.42432153 -0.63824145 57.42432153 -0.63824145 62.19140625 -1.1015625 C67.48582959 0.42974763 70.18503378 3.12950052 74 7 C75.31629395 8.25103516 75.31629395 8.25103516 76.65917969 9.52734375 C79.09522369 11.84295599 81.50202516 14.18136794 83.89306641 16.54296875 C84.88649876 17.51970751 85.88528327 18.4910304 86.88916016 19.45703125 C88.36300996 20.8759045 89.81952083 22.31074082 91.2734375 23.75 C92.56386963 25.01070312 92.56386963 25.01070312 93.88037109 26.296875 C96.40770348 29.51993699 97.32919638 31.96726653 98 36 C97.03224962 40.86716037 93.5583863 43.83000408 90.1171875 47.17578125 C89.54292023 47.74580368 88.96865295 48.31582611 88.37698364 48.90312195 C86.54993747 50.71344057 84.71271582 52.51301983 82.875 54.3125 C81.63082315 55.54162241 80.38732562 56.77143287 79.14453125 58.00195312 C76.10416507 61.00932866 73.0546325 64.00711883 70 67 C71.60267331 71.07217859 74.52466574 73.69555974 77.62890625 76.6484375 C78.75758674 77.74695905 79.88582863 78.84593138 81.01367188 79.9453125 C82.78844306 81.66430726 84.56679655 83.379105 86.35327148 85.0859375 C88.08143199 86.74138605 89.793405 88.41227472 91.50390625 90.0859375 C92.03931534 90.58926605 92.57472443 91.0925946 93.12635803 91.61117554 C95.50275722 93.95470342 96.93932346 95.82376073 98.03100586 98.99462891 C97.96887398 105.01701843 94.63608812 108.70673426 90.59483337 112.77070618 C90.0259993 113.32719345 89.45716522 113.88368073 88.87109375 114.45703125 C88.28078873 115.0454631 87.6904837 115.63389496 87.08229065 116.24015808 C85.84100089 117.47475797 84.59613464 118.70577134 83.34790039 119.93334961 C81.43301912 121.81690758 79.52917231 123.71108508 77.62695312 125.60742188 C76.41729036 126.80792045 75.20702486 128.00781205 73.99609375 129.20703125 C73.42523544 129.77363968 72.85437714 130.34024811 72.26622009 130.92402649 C68.77883164 134.34828401 67.21773208 135.85317667 62.30664062 136.4453125 C57.87226503 136.37536179 55.88671787 134.79639417 52.82458496 131.73095703 C52.25340942 131.11849121 51.68223389 130.50602539 51.09375 129.875 C50.48358032 129.25351074 49.87341064 128.63202148 49.24475098 127.99169922 C47.31016617 126.01251697 45.40532384 124.00732602 43.5 122 C42.18937124 120.64922352 40.876889 119.30024281 39.5625 117.953125 C36.35316138 114.65582811 33.17020388 111.33492271 30 108 C25.75723846 111.56126902 21.6860927 115.19701613 17.79296875 119.14453125 C16.41915039 120.52995117 16.41915039 120.52995117 15.01757812 121.94335938 C14.07392431 122.89944906 13.13056796 123.85583243 12.1875 124.8125 C10.30885256 126.71773656 8.42694031 128.61953725 6.54296875 130.51953125 C5.3058313 131.77407104 5.3058313 131.77407104 4.04370117 133.05395508 C1.4809448 135.49425265 0.39994587 135.93600866 -3.125 136.5 C-12.04741184 135.34872105 -19.17820436 124.97762463 -25.37524414 118.75512695 C-26.95539644 117.16954204 -28.54091976 115.58946558 -30.12695312 114.00976562 C-31.13573806 113.00032108 -32.14421338 111.99056701 -33.15234375 110.98046875 C-34.05976318 110.07192139 -34.96718262 109.16337402 -35.90209961 108.22729492 C-38.21701839 105.76959632 -38.87390742 104.66198604 -39.5 101.375 C-38.20101485 92.60685023 -27.11557249 84.99857735 -21.0625 79 C-20.0824469 78.02497614 -19.1026276 77.0497172 -18.12304688 76.07421875 C-15.75097687 73.71383382 -13.3765914 71.35583095 -11 69 C-12.61551447 64.91709903 -15.54639696 62.21566164 -18.62890625 59.2109375 C-19.1786058 58.66643951 -19.72830536 58.12194153 -20.29466248 57.5609436 C-22.04591176 55.82746221 -23.80371688 54.10083449 -25.5625 52.375 C-27.32395811 50.64115848 -29.08393623 48.90587817 -30.84104919 47.16763306 C-31.93341505 46.08752633 -33.02844296 45.01010397 -34.12635803 43.93563843 C-36.99836 41.10160662 -38.73666921 39.38248664 -39.5 35.375 C-38.23345646 26.82583113 -27.75429831 19.599383 -21.75512695 13.62475586 C-20.16954204 12.04460356 -18.58946558 10.45908024 -17.00976562 8.87304688 C-16.00032108 7.86426194 -14.99056701 6.85578662 -13.98046875 5.84765625 C-12.61764771 4.4865271 -12.61764771 4.4865271 -11.22729492 3.09790039 C-7.52814204 -0.38635048 -5.06040947 -0.65295606 0 0 Z M-5.30688477 22.19335938 C-5.84627686 22.73798828 -6.38566895 23.28261719 -6.94140625 23.84375 C-7.52470703 24.43027344 -8.10800781 25.01679688 -8.70898438 25.62109375 C-9.62647461 26.55115234 -9.62647461 26.55115234 -10.5625 27.5 C-11.48579102 28.43005859 -11.48579102 28.43005859 -12.42773438 29.37890625 C-13.95405516 30.91705898 -15.4773115 32.45825142 -17 34 C-15.40247219 37.98704286 -12.60944346 40.6301689 -9.58984375 43.5703125 C-9.06234024 44.09261444 -8.53483673 44.61491638 -7.99134827 45.15304565 C-6.3114287 46.81520334 -4.62495728 48.47049805 -2.9375 50.125 C-1.24736984 51.78750973 0.4412772 53.45145954 2.12705994 55.11837769 C3.17490971 56.1539722 4.22542114 57.18688183 5.27882385 58.21682739 C8.58592789 61.478362 9.85561006 62.95317292 10.5 67.625 C10.43488965 71.29493029 9.59128355 72.93448101 7.12109375 75.6171875 C6.48606934 76.3086084 5.85104492 77.0000293 5.19677734 77.71240234 C1.04498283 82.0358425 -3.17923514 86.28158931 -7.4375 90.5 C-8.82098633 91.87671875 -8.82098633 91.87671875 -10.23242188 93.28125 C-12.48599899 95.52315055 -14.74189075 97.762666 -17 100 C-15.16307611 104.00374431 -12.50882084 106.71957934 -9.375 109.75 C-8.859375 110.25660156 -8.34375 110.76320313 -7.8125 111.28515625 C-6.54616661 112.52803902 -5.2736856 113.76465276 -4 115 C2.3366216 109.78521459 8.055816 104.02719884 13.8125 98.1875 C15.69114744 96.28226344 17.57305969 94.38046275 19.45703125 92.48046875 C20.28178955 91.64410889 21.10654785 90.80774902 21.95629883 89.94604492 C24.5190552 87.50574735 25.60005413 87.06399134 29.125 86.5 C38.27258805 87.68033394 45.75850634 98.63930439 52 104.9375 C52.97502386 105.9175531 53.9502828 106.8973724 54.92578125 107.87695312 C57.28616618 110.24902313 59.64416905 112.6234086 62 115 C65.7658106 111.81968878 69.48438989 108.64858175 72.9375 105.125 C73.52402344 104.52945313 74.11054688 103.93390625 74.71484375 103.3203125 C75.13894531 102.88460937 75.56304687 102.44890625 76 102 C74.40043826 97.93030525 71.48090558 95.32660609 68.37109375 92.38671875 C67.24225804 91.29291648 66.11402109 90.19849601 64.98632812 89.10351562 C63.21284599 87.39190771 61.43526489 85.68538068 59.64672852 83.98950195 C57.91610204 82.34386693 56.20522285 80.6796319 54.49609375 79.01171875 C53.96068466 78.51355148 53.42527557 78.01538422 52.87364197 77.50212097 C50.23521498 74.90059318 49.00522066 73.01804297 47.96899414 69.43676758 C48.02239881 63.51725934 51.09237404 60.67980729 55.15153503 56.62187195 C55.68289566 56.10083389 56.21425629 55.57979584 56.76171875 55.04296875 C57.31237503 54.49514236 57.86303131 53.94731598 58.43037415 53.38288879 C60.17808307 51.64631207 61.93263999 49.91684703 63.6875 48.1875 C64.87871544 47.00632334 66.06947566 45.8246874 67.25976562 44.64257812 C70.16793528 41.75637643 73.08226417 38.87652935 76 36 C74.16307611 31.99625569 71.50882084 29.28042066 68.375 26.25 C67.859375 25.74339844 67.34375 25.23679688 66.8125 24.71484375 C65.54616661 23.47196098 64.2736856 22.23534724 63 21 C56.6633784 26.21478541 50.944184 31.97280116 45.1875 37.8125 C43.30885256 39.71773656 41.42694031 41.61953725 39.54296875 43.51953125 C38.71821045 44.35589111 37.89345215 45.19225098 37.04370117 46.05395508 C34.4809448 48.49425265 33.39994587 48.93600866 29.875 49.5 C20.72317723 48.31911964 13.2856518 37.37573361 7.0625 31.0625 C5.18121858 29.15469053 3.29670807 27.25027523 1.41015625 25.34765625 C0.17471069 24.09480835 0.17471069 24.09480835 -1.08569336 22.81665039 C-3.22543149 20.5216851 -3.22543149 20.5216851 -5.30688477 22.19335938 Z " fill="#9966CD" transform="translate(346,188)"/>
</svg>
